<svg id="Layer_1" data-name="Layer 1" xmlns="http://www.w3.org/2000/svg" xmlns:xlink="http://www.w3.org/1999/xlink" viewBox="0 0 1080 1080"><defs><style>.cls-1{fill:#233435;}.cls-2,.cls-8{fill:#ffbe00;}.cls-3{fill:url(#linear-gradient);}.cls-4{fill:url(#linear-gradient-2);}.cls-5{fill:url(#linear-gradient-3);}.cls-6,.cls-7{fill:#093385;}.cls-6{stroke:#332c2b;stroke-miterlimit:10;stroke-width:1px;}.cls-10,.cls-11,.cls-6,.cls-7,.cls-8{fill-rule:evenodd;}.cls-9{fill:none;}.cls-10{fill:#0c9246;}.cls-11,.cls-12{fill:#fefefe;}</style><linearGradient id="linear-gradient" x1="105.95" y1="1093.41" x2="292.27" y2="907.09" gradientUnits="userSpaceOnUse"><stop offset="0" stop-color="#06243e"/><stop offset="0.5" stop-color="#093385"/><stop offset="1" stop-color="#ffbe00"/></linearGradient><linearGradient id="linear-gradient-2" x1="15.21" y1="1002.67" x2="201.54" y2="816.35" xlink:href="#linear-gradient"/><linearGradient id="linear-gradient-3" x1="51.72" y1="1039.18" x2="238.04" y2="852.86" xlink:href="#linear-gradient"/></defs><path class="cls-1" d="M404,954.48c7.93-8.84,14.79-14.8,25.61-15.52s20,4.51,15.7,16.42c-1.81-3.25-10.83-3.25-18.76,5.77l-19.13,21.11,44,47.62H423l-38.61-42v42H361.46V922c0-11.54,9-18.58,22.91-18.4v72.7Z"/><path class="cls-1" d="M478.64,981.36c0,8.65-.36,20.38,7.58,26,5.41,3.79,14.25,3.79,19.84,0,8.12-5.41,7.4-16.59,7.4-25.25V955.2c-.18-12.81,9.38-19.31,23.27-18.94v39.68c.18,16.24-1.26,27.24-3.79,33.38-6.85,16-20.2,22.55-37.16,22.55-18.4,0-32.29-7.76-38.06-25.8-1.63-5.41-2.71-15.7-2.71-26.88V936.62h23.63Z"/><path class="cls-1" d="M594.48,934.09a33,33,0,0,1,25.8,9.74q8.12,8.38,8.11,24.36v61.69H605.3c0-12.08.9-54.12-1.44-62.78-2-7.57-7.94-11.54-14.25-11.54-8.12,0-13,4.87-13,12.08-2.89-.9-6.13-4.32-7.58-7.75v70H545.77V936.44H569v10.82C573,938.78,585.82,934.63,594.48,934.09Z"/><path class="cls-2" d="M660.29,899.77a14.09,14.09,0,0,1,4.51,10.65,15,15,0,0,1-4.33,10.82c-6.5,6.5-19.49,4.15-22.55,12.27-2.17-7.58-6.68-26,1.26-33.92a14.59,14.59,0,0,1,10.64-4.33A13.71,13.71,0,0,1,660.29,899.77Z"/><path class="cls-1" d="M661.37,936.44v93.44H638.1v-74.5C639,940.76,648.56,936.62,661.37,936.44Z"/><path class="cls-1" d="M722.53,934.09a33,33,0,0,1,25.8,9.74q8.11,8.38,8.11,24.36v61.69H733.35c0-12.08.9-54.12-1.44-62.78-2-7.57-7.94-11.54-14.25-11.54-8.12,0-13,4.87-13,12.08-2.89-.9-6.13-4.32-7.58-7.75v70H673.82V936.44h23.27v10.82C701.06,938.78,713.87,934.63,722.53,934.09Z"/><path class="cls-1" d="M774.31,1030.06c7.76,8.66,25.61,14.8,37.52,14.44,22.19-.91,26.88-13.35,26.88-26.88-27.24,27.06-73.24,8.47-73.24-36.63,0-29,22-47.8,45.64-46.9,23.09.9,26.88,21.29,22.55,29.23-4.15-6-12.81-7.76-19.49-7.76-33.37,0-34.09,53,0,53,19.13,0,24.54-17,24.54-33.74V936.44h23.45v83c0,28.5-16.42,46.72-47.8,46.72C790.54,1066.14,767.09,1055,774.31,1030.06Z"/><path class="cls-1" d="M944.43,1019.6c-27.24,27.06-73.24,8.66-73.24-36.62,0-29,22-49.79,45.64-48.89,23.09.9,26.88,21.47,22.55,29.23-4-6-12.63-7.58-19.49-7.58-33.37,0-34.09,55,0,55,19.13,0,24.54-19.12,24.54-35.9V936.44h23.45v93.44H944.43Z"/><path class="cls-1" d="M1025.61,934.09a33,33,0,0,1,25.8,9.74q8.11,8.38,8.12,24.36v61.69h-23.09c0-12.08.9-54.12-1.45-62.78-2-7.57-7.93-11.54-14.25-11.54-8.12,0-13,4.87-13,12.08-2.88-.9-6.13-4.32-7.57-7.75v70H976.91V936.44h23.27v10.82C1004.15,938.78,1017,934.63,1025.61,934.09Z"/><path class="cls-3" d="M302.42,941.11v-.43a34.07,34.07,0,0,0-3.55-13.85A34.53,34.53,0,0,0,292,916.36a41.28,41.28,0,0,0-15.12-10,43.48,43.48,0,0,0-18.92-2.65,58.6,58.6,0,0,0-19,4.64c-5,2.21-9.53,5.26-12.39,9.25a14.86,14.86,0,0,0-2,3.26,24.7,24.7,0,0,0-1.31,7.17,26.32,26.32,0,0,0,.23,4.78,34.32,34.32,0,0,0-1.68-4.78c-.18-.39-.37-.83-.58-1.23a34.37,34.37,0,0,0-6.93-10.47,41.17,41.17,0,0,0-15.11-10,43.48,43.48,0,0,0-18.92-2.65,58.6,58.6,0,0,0-19,4.64c-6.31,2.79-11.85,6.89-14.35,12.51a26.64,26.64,0,0,0-.11,16.31l.11.33c1.66,4.53,5.94,9.06,9.75,10.22,0-9.5,6.45-15.92,17.4-15.92,8.3,0,15.94,5.22,18.55,15.23.87,3.19,1.38,9.78,1.71,18v.22c.51,13.19.43,30.45.32,44.37a.08.08,0,0,0,0,.11c1.93,13,12.69,19.82,27.88,20.11h2.46V948.47a70,70,0,0,0-.25-7.36v-.43a34.45,34.45,0,0,0-.42-3.93c0,.15.05.3.1.45l.11.33a16.5,16.5,0,0,0,1.67,3.26,2.71,2.71,0,0,0,.29.43c2.06,3.08,5,5.69,7.79,6.53,0-9.5,6.45-15.92,17.4-15.92,8.3,0,15.95,5.22,18.56,15.23.87,3.19,1.37,9.78,1.7,18v.22c.51,13.19.44,30.45.33,44.37,0,0,0,.07,0,.11,1.92,13,12.68,19.82,27.87,20.11h2.47V948.47A67.3,67.3,0,0,0,302.42,941.11Z"/><path class="cls-4" d="M98.51,992.06c-1.67-4.53-5.94-9.06-9.75-10.26,0,9.54-6.41,16-17.36,16-8.34,0-16-5.22-18.56-15.22-.8-2.94-1.3-8.81-1.63-16.17-.51-11.67-.54-27.15-.47-40.67-2.25-12.47-12.91-19-27.77-19.32h-2.5v74.75c0,2.61,0,5,.22,7.35l0,.44a33.44,33.44,0,0,0,3.55,13.85,34.54,34.54,0,0,0,6.88,10.47,41.25,41.25,0,0,0,20.05,11.49,43.09,43.09,0,0,0,14,1.12,58.19,58.19,0,0,0,19-4.64c6.31-2.79,11.82-6.92,14.32-12.5a26.64,26.64,0,0,0,.11-16.31Z"/><path class="cls-5" d="M107.43,906.38v52.34c0,1.27,0,2.5,0,3.73v67.42h30.74V976.23c-.08-3.27,0-6.45,0-9.43V931.35C138.34,914.46,125.73,905.91,107.43,906.38Z"/><path class="cls-6" d="M913.31,232.26l-154.43-64-64-154.43-154.44,64L386,13.86l-64,154.43-154.44,64,64,154.44-64,154.45,154.44,64,64,154.44,154.45-64,154.44,64,64-154.44,154.43-64-64-154.45ZM564.44,379.51l-4.41,2-.28-1.27,2.3-3,1.71.89Z"/><path class="cls-7" d="M863.05,253.08,729.43,197.74,674.09,64.12,540.47,119.47,406.85,64.12,351.5,197.74,217.89,253.08,273.23,386.7,217.89,520.32,351.5,575.67l55.35,133.61,133.62-55.34,133.62,55.34,55.34-133.61,133.62-55.35L807.7,386.7Z"/><path class="cls-2" d="M677,716.4,540.47,659.83,403.9,716.4,347.33,579.84,210.77,523.27,267.34,386.7,210.77,250.14l136.56-56.57L403.9,57l136.57,56.56L677,57,733.6,193.57l136.57,56.57L813.6,386.7l56.57,136.57L733.6,579.84Zm-452-199L355.67,571.5,409.8,702.17,540.47,648l130.67,54.13L725.26,571.5l130.67-54.12L801.81,386.7,855.93,256,725.26,201.91,671.14,71.24,540.47,125.37,409.8,71.24,355.67,201.91,225,256,279.13,386.7Z"/><path class="cls-8" d="M469.67,230.09l.61.53C470.22,230.57,469.45,230.23,469.67,230.09Z"/><path class="cls-8" d="M419.59,268.67c0-5.18,2.83-.14,1.1,0l-.14,0C418.69,268.74,419.59,272.38,419.59,268.67Z"/><path class="cls-8" d="M402.88,461.4c2.52-2.84,1.34,1.61.52.63,0,0-.14-.17-.15-.18s-.5-.31-.37-.45Z"/><path class="cls-8" d="M429.15,493.19c.15-.12.49.13.49.33s.21.14.21.14-3.37,1.57-.7-.47Z"/><path class="cls-8" d="M505.64,400.68l2.89-1.27a5.27,5.27,0,0,0,.44,1.13c.19.39.39.73.54,1L506.67,403A17.21,17.21,0,0,1,505.64,400.68Z"/><path class="cls-8" d="M448.56,432.41l7.79-10.77L481.12,411c.29.69.63,1.37.93,2.11s.68,1.32.93,1.91Z"/><path class="cls-8" d="M508.68,406.56l2.74-1.86a7.14,7.14,0,0,0,1.42,2l-2.6,1.86a7.68,7.68,0,0,1-.78-.93c-.25-.35-.49-.69-.78-1.08Z"/><path class="cls-8" d="M467.36,440.68l-13.17,1.47,32.26-21.25a43.42,43.42,0,0,0,2.6,3.57Z"/><path class="cls-8" d="M575.79,370.73l-3,1.27a12.54,12.54,0,0,0-1-2.15l2.89-1.42c.34.78.74,1.51,1.13,2.3Z"/><path class="cls-8" d="M625,349.78,600.16,360.4c-.68-1.52-1.27-2.89-1.86-4l34.56-17.52Z"/><path class="cls-8" d="M504.37,397.55l3.13-1a12,12,0,0,0,.74,2.16l-3,1.27a7.73,7.73,0,0,1-.54-1.12,10,10,0,0,1-.34-1.28Z"/><path class="cls-8" d="M461.34,417.62l4.75-7.58,13-4.31a22.66,22.66,0,0,1,.78,2.15c.25.64.54,1.32.83,2Z"/><path class="cls-8" d="M510.68,409.15l2.6-1.86a5.26,5.26,0,0,0,.63.84c.25.29.49.58.79.88l-2.45,2.15a6.1,6.1,0,0,1-1.57-2Z"/><path class="cls-8" d="M482.29,438.13l10.33-9.2a12.6,12.6,0,0,1-1.52-1.71c-.44-.59-.88-1.13-1.37-1.72l-16.35,12.93,8.91-.3Z"/><path class="cls-8" d="M576.91,373.86l-3,1a4.17,4.17,0,0,1-.49-1.08c-.15-.44-.3-.83-.39-1.22l3-1.18a9.72,9.72,0,0,0,.34,1.32c.15.4.3.74.49,1.13Z"/><path class="cls-8" d="M619.94,353.79l-19.19,7.73c.39.89.83,2.26,1.42,4.17l13.22-4.46,4.55-7.44Z"/><path class="cls-8" d="M570.74,362.11l-2.54,2a13.84,13.84,0,0,0-1.62-1.71l2.45-2.16c.3.3.59.59.88.93S570.5,361.82,570.74,362.11Z"/><path class="cls-8" d="M607.9,333l-16.35,12.77c-.64-.88-1.57-2-2.69-3.28l10.33-9.35Z"/><path class="cls-8" d="M574.37,367.69l-2.89,1.57a16.68,16.68,0,0,0-1.13-2l2.7-1.71.58,1.17a3.61,3.61,0,0,0,.74,1Z"/><path class="cls-8" d="M641.33,332l-43.61,23.2c.19.49-.54-.73-2.16-3.72l41.9-26.09,10.72-1.71Z"/><path class="cls-8" d="M507.11,403.72a18.34,18.34,0,0,0,1.13,2.15l2.88-1.76a3.34,3.34,0,0,1-.73-.93,9.55,9.55,0,0,1-.59-1.08Z"/><path class="cls-8" d="M444,446l-10.77,1.72,6.86-8.47,43.46-23.06a39,39,0,0,0,2.3,3.72L444,446Z"/><path class="cls-8" d="M558,351.64l-1.62,2.88-2-1,1.32-2.84c1.22.54,2,.88,2.3,1Z"/><path class="cls-8" d="M576.67,301.32l10.72-7.74L569.91,328c-1.71-.88-3-1.51-3.86-1.86l10.62-24.81Z"/><path class="cls-8" d="M517.83,416.2l1.86-2.59c.29.29.64.54.93.78s.69.44,1,.64l-1.76,2.59a17,17,0,0,1-2-1.42Z"/><path class="cls-8" d="M484.3,472.25l1.27-13.31,16.2-21.54a29.92,29.92,0,0,0,3.58,2.45l-21.05,32.4Z"/><path class="cls-8" d="M523.46,419.78l1.42-2.89a17.09,17.09,0,0,1,2.15,1l-1.27,2.84a6,6,0,0,1-1.22-.45,3.62,3.62,0,0,1-1.08-.53Z"/><path class="cls-8" d="M504.81,470.1l-10.92,7.73,17.53-34.41c1.71.78,3,1.32,4,1.71l-10.62,25Z"/><path class="cls-8" d="M563.6,355.21l-2,2.59c-.59-.49-1.17-.93-1.86-1.42l1.71-2.59c1,.59,1.67,1.08,2.16,1.42Z"/><path class="cls-8" d="M595.71,312.33l1.42-13.17-21.2,32.26c.84.59,2.06,1.42,3.58,2.59l16.2-21.68Z"/><path class="cls-8" d="M515.28,414.05l2.16-2.3a6.13,6.13,0,0,0,.83.78,9.76,9.76,0,0,0,.88.64l-2,2.59c-.29-.29-.58-.59-.93-.88s-.68-.59-.93-.83Z"/><path class="cls-8" d="M488,453l.15-8.86,9.3-10.33c.58.49,1.12.93,1.66,1.42a15.85,15.85,0,0,0,1.66,1.33Z"/><path class="cls-8" d="M526.45,421.05l1.17-3c-.2-.09.54.2,2.25.83l-1,3c-1.42-.49-2.25-.78-2.44-.88Z"/><path class="cls-8" d="M516.26,460.36l-7.44,4.6,7.74-19.24a31.49,31.49,0,0,0,4,1.42Z"/><path class="cls-8" d="M566.19,357.36l-2.15,2.3c-1.47-1-2.06-1.51-1.86-1.42l2-2.59c.29.29.58.59.93.88s.68.54,1.07.83Z"/><path class="cls-8" d="M593.41,318.35,580.54,334.7a11.51,11.51,0,0,0,1.71,1.52c.59.44,1.12.88,1.71,1.37l9.16-10.33Z"/><path class="cls-8" d="M555,350.36l-1.27,2.84a20.25,20.25,0,0,0-2.15-.68l1-3.18A15.55,15.55,0,0,1,555,350.36Z"/><path class="cls-8" d="M572.65,306.31l-7.78,19.38c-.73-.29-1.47-.54-2.15-.78s-1.33-.49-2-.78L565,311.06l7.63-4.75Z"/><path class="cls-8" d="M560.86,353.35l-1.72,2.74a16.76,16.76,0,0,0-2-1.13l1.42-2.88a9.7,9.7,0,0,1,2.3,1.27Z"/><path class="cls-8" d="M601.05,289l-26.14,41.85c-.64-.34-1.28-.73-1.91-1.12s-1.23-.79-1.81-1.18l23.1-43.42,8.47-6.9L601.05,289Z"/><path class="cls-8" d="M512.84,411.75l2.3-2.16a17.14,17.14,0,0,0,1.71,1.57l-2.15,2.45-1.86-1.86Z"/><path class="cls-8" d="M490,439.85l-.15-3.28-3.28-.3,6.85-6.46c.69.74,1.72,1.81,3,3.13L490,439.85Z"/><path class="cls-8" d="M568.59,359.66l-2.4,2.16s-.54-.54-1.61-1.57l2.15-2.45,1.86,1.86Z"/><path class="cls-8" d="M594.88,335l-6.9,6.46c-1.33-1.32-2.4-2.34-3.14-3l6.42-6.9.29,3.28,3.33.14Z"/><path class="cls-8" d="M520.57,418.06l1.71-2.74a4.41,4.41,0,0,0,2,1.13l-1.57,2.89c-.39-.2-.78-.4-1.12-.59a5.28,5.28,0,0,1-1-.69Z"/><path class="cls-8" d="M487,486.3l-8.27,6.9,1.71-10.77,26.09-41.85a26,26,0,0,0,3.72,2.1L487,486.3Z"/><path class="cls-8" d="M538.63,347.62l.15,3.18a10.37,10.37,0,0,0-1.22.05,9,9,0,0,1-1.08,0l-.44-3.13a16.83,16.83,0,0,1,2.59-.15Z"/><path class="cls-8" d="M529.63,294.71l5.58-12.19,2,38.57c-1,0-2.4.1-4.3.29l-3.28-26.67Z"/><path class="cls-8" d="M536,423.64l.44-3.33a4.94,4.94,0,0,0,1.08.25,10.37,10.37,0,0,0,1.22.05l-.15,3.18a11.76,11.76,0,0,1-1.37-.1,10,10,0,0,0-1.22-.05Z"/><path class="cls-8" d="M535.21,488.89l-5.58-12.18,3.28-26.83a21.64,21.64,0,0,0,4.3.44l-2,38.57Z"/><path class="cls-8" d="M542.65,423.79l-.15-3.18a9.4,9.4,0,0,0,1.18-.05c.39-.05.78-.15,1.27-.25l.29,3.33a9.58,9.58,0,0,0-1.27.05,10.16,10.16,0,0,1-1.32.1Z"/><path class="cls-8" d="M551.7,476.71l-5.48,12.18-2-38.57a21.37,21.37,0,0,0,4.31-.44Z"/><path class="cls-8" d="M545.24,347.77,545,350.9a10,10,0,0,1-1.27,0,9.4,9.4,0,0,0-1.18-.05l.15-3.18a16.39,16.39,0,0,1,2.59.15Z"/><path class="cls-8" d="M551.7,294.71l-3.18,26.67c-1.91-.19-3.33-.29-4.31-.29l2-38.57,5.48,12.19Z"/><path class="cls-8" d="M532.76,423.06l.73-3.14a11.09,11.09,0,0,0,1.08.3,10,10,0,0,0,1.22.09l-.44,3.19a6.06,6.06,0,0,1-1.37-.15l-1.22-.29Z"/><path class="cls-8" d="M528.75,470.39l-4.31-7.88L527.33,449c1.91.39,3.32.64,4.3.73Z"/><path class="cls-8" d="M546.12,423.5l-.59-3.19a8.47,8.47,0,0,0,1.13-.09q.58-.15,1.32-.3l.54,3.14c-1.13.19-2,.34-2.4.44Z"/><path class="cls-8" d="M556.84,462.51l-4.16,7.88-2.84-20.66A21.26,21.26,0,0,0,554,449l2.84,13.51Z"/><path class="cls-8" d="M548.52,348.36l-.54,3.13a5.32,5.32,0,0,1-1.32-.15l-1.13-.29.59-3.13,2.4.44Z"/><path class="cls-8" d="M552.68,301l4.16,7.74L554,322.36c-2-.34-3.42-.58-4.16-.68L552.68,301Z"/><path class="cls-8" d="M535.35,347.92l.44,3.13-1.22.29a4.93,4.93,0,0,1-1.08.15l-.73-3.13a5.42,5.42,0,0,0,1.22-.15c.44-.1.88-.2,1.37-.29Z"/><path class="cls-8" d="M528.75,301l2.88,20.66c-1,.1-2.39.34-4.3.68l-2.89-13.6Z"/><path class="cls-8" d="M542,347.48l-.14,3.32h-2.31l-.14-3.32H542Z"/><path class="cls-8" d="M544.51,271.75l-1.72,49.19h-4.3l-1.57-49.19,3.72-10.18Z"/><path class="cls-8" d="M529.63,422.22l1-3c.29.1.63.19,1,.34a2.91,2.91,0,0,0,1.13.25l-.74,3.13C529.48,422.08,528.65,421.83,529.63,422.22Z"/><path class="cls-8" d="M523.85,457.91,522.14,455l-3,1.62,2.69-9.06a34.44,34.44,0,0,0,4.16,1.17l-2.15,9.16Z"/><path class="cls-8" d="M551.85,349.19l-1,3a3,3,0,0,1-1.12-.24c-.4-.1-.79-.25-1.18-.34l.88-3.14C549.89,348.6,550.67,348.85,551.85,349.19Z"/><path class="cls-8" d="M562.33,314.78l-2.75,9.05c-1.91-.58-3.32-1-4.3-1.17l2.15-9.16,1.86,2.74,3-1.46Z"/><path class="cls-8" d="M539.37,423.79l.14-3.18h2.31l.14,3.18a3.13,3.13,0,0,0-.73,0,2.43,2.43,0,0,1-.59.1,2.3,2.3,0,0,1-.69-.1A2.28,2.28,0,0,0,539.37,423.79Z"/><path class="cls-8" d="M544.51,499.66l-3.87,10.19-3.72-10.19,1.57-49.34a11.63,11.63,0,0,0,2.15.15,11.27,11.27,0,0,0,2.15-.15l1.72,49.34Z"/><path class="cls-8" d="M519.84,353.79l1.76,2.59c-1.18.84-1.81,1.33-1.91,1.42l-1.86-2.59a18.22,18.22,0,0,1,2-1.42Z"/><path class="cls-8" d="M485.57,312.33l-1.27-13.17,21.05,32.26a17.52,17.52,0,0,1-1.76,1.37c-.64.44-1.23.83-1.82,1.22l-16.2-21.68Z"/><path class="cls-8" d="M555.72,420.76l-1.32-2.84,2-1,1.62,2.89a10.61,10.61,0,0,1-1.23.54c-.44.19-.78.34-1.07.44Z"/><path class="cls-8" d="M587.39,477.83l-17.48-34.41-3.86,1.71,10.62,25Z"/><path class="cls-8" d="M561.44,417.62,559.73,415a14,14,0,0,1,1.86-1.42l2,2.59C563.11,416.55,562.42,417,561.44,417.62Z"/><path class="cls-8" d="M595.71,458.94l1.42,13.31-21.2-32.4a34.5,34.5,0,0,0,3.58-2.45l16.2,21.54Z"/><path class="cls-8" d="M525.76,350.66,527,353.5l-1.17.58a5.07,5.07,0,0,1-1,.44l-1.42-2.88,2.3-1Z"/><path class="cls-8" d="M504.81,301.32l10.62,24.81a19,19,0,0,0-2.15.93c-.69.35-1.32.64-1.86.93l-17.53-34.41,10.92,7.73Z"/><path class="cls-8" d="M552.54,421.93l-1-3c1.42-.58,2.15-.83,2.15-.83l1.27,3c-.19.1-1,.39-2.44.88Z"/><path class="cls-8" d="M572.65,465l-7.78-19.24a18.45,18.45,0,0,1-4.16,1.42L565,460.36l7.63,4.6Z"/><path class="cls-8" d="M564.19,415.76l-2-2.59c-.2.1.39-.39,1.86-1.42l2.15,2.3a8.73,8.73,0,0,0-1.07.83C564.77,415.17,564.48,415.47,564.19,415.76Z"/><path class="cls-8" d="M593.12,444.15l.29,8.86-12.87-16.44c1.51-1.18,2.64-2.06,3.42-2.75Z"/><path class="cls-8" d="M528.89,349.34l1,3.18c-.63.19-1.42.44-2.25.68l-1.17-2.84A17.84,17.84,0,0,1,528.89,349.34Z"/><path class="cls-8" d="M508.82,306.31l7.44,4.75,4.31,13.07c-.68.29-1.37.53-2.05.78a14,14,0,0,0-2,.78l-7.74-19.38Z"/><path class="cls-8" d="M517.14,355.65l2,2.59c-.29.3-.59.54-.88.79s-.59.44-.83.63l-2.16-2.3a9.86,9.86,0,0,1,.93-.83c.35-.29.64-.59.93-.88Z"/><path class="cls-8" d="M488,318.35l.15,8.91,9.3,10.33c.58-.49,1.12-.93,1.66-1.37a20.17,20.17,0,0,0,1.66-1.52Z"/><path class="cls-8" d="M522.72,352.08l1.57,2.88a6.43,6.43,0,0,0-2,1.13l-1.71-2.74a8,8,0,0,1,2.15-1.27Z"/><path class="cls-8" d="M487,285.11l23.25,43.42c-1.71,1-2.94,1.76-3.72,2.3L480.43,289l-1.71-10.77Z"/><path class="cls-8" d="M549.4,422.91l-.88-3.13a3.38,3.38,0,0,0,1.18-.25,9.55,9.55,0,0,1,1.12-.34l1,3C549.26,423.06,548.42,423.3,549.4,422.91Z"/><path class="cls-8" d="M562.33,456.64l-3-1.62-1.86,2.89-2.15-9.16c1-.19,2.39-.58,4.3-1.17l2.75,9.06Z"/><path class="cls-8" d="M532,348.5l.74,3.14c-.39.09-.78.24-1.13.34a3,3,0,0,1-1,.24l-1-3C530.46,348.9,531.29,348.7,532,348.5Z"/><path class="cls-8" d="M523.85,313.5l2.15,9.16c-.63.19-2,.59-4.16,1.17l-2.69-9.05,3,1.46,1.71-2.74Z"/><path class="cls-8" d="M558.56,419.34l-1.42-2.89a6.79,6.79,0,0,0,2-1.13l1.72,2.74C559.93,418.6,559.14,419,558.56,419.34Z"/><path class="cls-8" d="M601.05,482.43l1.71,10.77-8.47-6.9-23.1-43.61a14.93,14.93,0,0,0,1.81-1c.63-.4,1.27-.79,1.91-1.13Z"/><path class="cls-8" d="M506.67,368.43l2.84,1.42c-.15.39-.35.78-.54,1.17a5.43,5.43,0,0,0-.44,1l-2.89-1.27a13.76,13.76,0,0,1,1-2.3Z"/><path class="cls-8" d="M456.35,349.78l-7.79-10.92L483,356.38a19.05,19.05,0,0,1-.93,2c-.3.69-.64,1.32-.93,2l-24.77-10.62Z"/><path class="cls-8" d="M571.19,408.57l-2.6-1.86c.2-.3.39-.59.59-.93a9.36,9.36,0,0,1,.73-1.08l2.74,1.86c-.29.39-.58.73-.83,1.08S571.38,408.27,571.19,408.57Z"/><path class="cls-8" d="M627.28,442.15l-32.4-21.25a35.68,35.68,0,0,1-2.45,3.57l21.49,16.21Z"/><path class="cls-8" d="M574.66,403l-2.89-1.42a12.7,12.7,0,0,0,1-2.16l3,1.27C575.4,401.47,575,402.2,574.66,403Z"/><path class="cls-8" d="M625,421.64l7.88,10.77L598.3,415c.2-.49.84-1.81,1.86-4Z"/><path class="cls-8" d="M510.24,362.85l2.6,1.86a18.54,18.54,0,0,0-1.42,1.86l-2.74-1.72C509.8,363.38,510.34,362.75,510.24,362.85Z"/><path class="cls-8" d="M467.36,330.54l21.69,16.25a12.38,12.38,0,0,0-1.37,1.76l-1.23,1.81-32.26-21.09,13.17,1.27Z"/><path class="cls-8" d="M569,411.16,566.58,409a18.53,18.53,0,0,0,1.62-1.72l2.54,1.86a24.72,24.72,0,0,1-1.71,2Z"/><path class="cls-8" d="M607.9,438.43l-8.71-.3-10.33-9.2a15.65,15.65,0,0,1,1.27-1.71l1.42-1.72,16.35,12.93Z"/><path class="cls-8" d="M576.08,400c.1-.34.2-.73.34-1.12s.3-.84.49-1.28l-3-1a10.56,10.56,0,0,0-.49,1.18,9,9,0,0,0-.39,1l3,1.27Z"/><path class="cls-8" d="M615.39,410l4.55,7.58-19.19-7.73c.44-1.27.93-2.65,1.42-4.16Z"/><path class="cls-8" d="M512.25,360.25l2.45,2.16c-.3.29-.54.58-.79.83a8.41,8.41,0,0,0-.63.88l-2.6-2A17.73,17.73,0,0,1,512.25,360.25Z"/><path class="cls-8" d="M473.38,333l8.91.14,10.33,9.35a21.85,21.85,0,0,0-1.52,1.62l-1.37,1.66Z"/><path class="cls-8" d="M505.25,371.41l3,1.18a8,8,0,0,0-.74,2.3l-3.13-1a10.32,10.32,0,0,1,.34-1.13c.15-.39.34-.83.54-1.32Z"/><path class="cls-8" d="M461.34,353.79l4.75,7.44,13,4.46a15,15,0,0,0,.78-2.06c.25-.73.54-1.42.83-2.11l-19.38-7.73Z"/><path class="cls-8" d="M508.24,365.54l2.88,1.71c-.29.39-.73,1.08-1.32,2l-2.69-1.57a18.34,18.34,0,0,1,1.13-2.15Z"/><path class="cls-8" d="M444,325.4l41.85,26.09a39,39,0,0,0-2.3,3.72L440.1,332l-6.86-8.32L444,325.4Z"/><path class="cls-8" d="M566.73,413.61l-2.15-2.45c1.07-1.08,1.61-1.57,1.61-1.57l2.4,2.16c-.24.29-.59.59-.93.93s-.64.63-.93.93Z"/><path class="cls-8" d="M594.88,436.27l-3.33.3-.29,3.28-6.42-6.91c1-.93,2.06-2,3.14-3.13l6.9,6.46Z"/><path class="cls-8" d="M514.7,357.8l2.15,2.45a18.5,18.5,0,0,0-1.71,1.57l-2.3-2.16A9.61,9.61,0,0,1,514.7,357.8Z"/><path class="cls-8" d="M490,331.57l6.46,6.9c-.59.54-1.13,1.08-1.57,1.56s-1,.94-1.47,1.42L486.6,335l3.28-.14Z"/><path class="cls-8" d="M573.05,405.87l-2.7-1.76c.64-1.12,1-1.81,1.13-2l2.89,1.62a5.24,5.24,0,0,0-.74,1.13,9.27,9.27,0,0,1-.58,1Z"/><path class="cls-8" d="M641.33,439.26l6.85,8.47L637.46,446l-41.9-26.09c1.62-3,2.35-4.21,2.16-3.72Z"/><path class="cls-8" d="M572.65,364.85l-2.74,1.72a4.53,4.53,0,0,1-.73-.93c-.2-.35-.39-.64-.59-.93l2.6-1.86a8.84,8.84,0,0,1,1.46,2Z"/><path class="cls-8" d="M437.55,380.17l12.19-5.43,56.2,6.76a8.66,8.66,0,0,1-.06,1.27c0,.39-.09.73-.09,1l-68.24-3.58Z"/><path class="cls-8" d="M449.74,396.67l-12.19-5.43,68.24-3.72a12.44,12.44,0,0,0,.09,1.27,7.39,7.39,0,0,1,.06,1.13l-56.2,6.75Z"/><path class="cls-8" d="M631.74,396.67l-56.39-6.75c0-.35,0-.74.09-1.13s.1-.83.2-1.27l68.29,3.72Z"/><path class="cls-8" d="M456.05,373.71l7.74-4.3,42.73,9c-.1.59-.24,1.32-.44,2.3Z"/><path class="cls-8" d="M463.79,402l-7.74-4.26,50-7.05c.2,1,.34,1.71.44,2.3l-42.73,9Z"/><path class="cls-8" d="M625.42,397.7,617.54,402l-42.63-9c.09-.59.24-1.32.44-2.3l50.07,7.05Z"/><path class="cls-8" d="M625.42,373.71l-50.07,7.05c-.2-1-.35-1.71-.44-2.3l42.63-9Z"/><path class="cls-8" d="M654.5,389.52l-78.86-2.74v-2.3l78.86-2.59,10.18,3.72-10.18,3.91Z"/><path class="cls-8" d="M468.54,368.87l2.69-1.72-1.42-3,37.45,11.45a10.24,10.24,0,0,1-.4,1.18,2.76,2.76,0,0,0-.19,1l-38.13-8.86Z"/><path class="cls-8" d="M611.62,407.29l-37.55-11.5c-.19.49,0-.24.69-2.25l38.18,8.86-2.89,1.86,1.57,3Z"/><path class="cls-8" d="M469.66,407.29l1.57-3-2.69-1.86,38.13-8.86a3.79,3.79,0,0,0,.19,1.27c.15.39.3.74.4,1l-37.6,11.5Z"/><path class="cls-8" d="M612.94,368.87l-38.18,8.86a4.66,4.66,0,0,1-.39-1l-.3-1.18,37.55-11.45-1.57,3,2.89,1.72Z"/><path class="cls-8" d="M426.78,389.52l-10.18-3.91,10.18-3.72,79,2.59v2.3l-79,2.74Z"/><path class="cls-8" d="M631.74,374.74l12.19,5.43-68.29,3.58a4.31,4.31,0,0,1-.2-1,12.44,12.44,0,0,1-.09-1.27Z"/><polygon class="cls-8" points="583.82 352.22 583.96 354.23 585.82 354.96 585.82 356.82 583.96 356.09 583.96 354.23 581.96 353.64 581.81 351.64 583.82 352.22"/><polygon class="cls-8" points="586.41 352.37 586.56 354.38 584.7 353.64 584.55 351.64 586.41 352.37"/><polygon class="cls-8" points="569.77 348.36 569.33 348.8 568.88 349.92 569.47 351.05 570.5 351.05 570.6 349.92 569.77 348.36"/><polygon class="cls-8" points="573.93 346.64 571.48 346.89 574.07 347.62 574.07 347.04 573.93 346.64"/><polygon class="cls-8" points="567.32 339.3 567.91 341.89 567.32 343.61 566.73 344.34 567.47 344.78 570.6 346.5 573.63 345.91 575.49 346.2 575.49 347.33 572.07 348.36 572.36 348.8 573.19 349.19 574.07 349.78 575.49 351.2 577.5 352.08 577.94 352.22 577.79 352.52 578.38 354.52 580.53 355.8 581.66 356.09 581.81 356.24 581.37 356.24 580.83 356.53 580.68 357.07 581.22 357.95 581.96 358.83 582.93 357.66 584.55 358.25 584.7 358.25 584.55 358.98 583.67 359.67 581.37 359.81 579.36 358.39 578.77 356.53 577.06 355.5 576.23 353.2 573.93 352.37 573.63 351.93 572.07 349.92 571.63 351.05 569.91 352.22 568.35 352.08 567.76 350.8 568.35 349.04 569.91 347.62 566.49 346.2 565.9 345.32 564.18 345.32 562.18 344.64 560.86 343.61 561 342.63 561.74 341.45 561.88 341.75 563.16 343.02 564.72 343.75 565.75 343.9 565.75 343.75 566.19 343.9 566.34 343.9 565.9 340.48 567.32 339.3"/><polygon class="cls-8" points="558.02 343.61 559 340.62 560.02 337.59 560.42 336.17 561.59 334.7 562.86 334.16 562.18 335.87 562.03 336.31 560.71 339.3 560.17 341.01 558.02 343.61"/><polygon class="cls-8" points="557.28 335.58 557.43 338.47 556.55 339.89 554.98 341.16 553.12 341.6 550.97 341.45 548.96 340.48 548.37 338.47 549.7 336.02 550.97 334.99 551.12 334.99 550.67 335.73 549.4 337.74 551.56 340.04 554.4 340.18 556.01 339.3 555.72 336.61 557.28 335.58"/><polygon class="cls-8" points="553.86 331.71 555.42 333.13 553.86 334.31 552.14 332.99 553.86 331.71"/><polygon class="cls-8" points="543.24 338.71 544.65 338.86 544.95 338.62 544.65 337.44 543.24 338.71"/><polygon class="cls-8" points="545.24 336.71 545.53 338.47 545.39 339.3 545.1 340.04 544.8 340.48 543.97 340.48 540.93 340.48 541.37 338.71 544.51 336.85 542.35 334.45 538.93 332.55 538.93 332.99 536.63 332.01 536.92 330.15 536.92 329.85 542.21 332.69 544.95 336.17 545.39 334.7 545.39 332.01 545.24 330.15 546.22 329.12 547.54 330.29 546.51 331.86 546.22 333.43 545.98 335.29 545.24 336.71"/><polygon class="cls-8" points="535.5 342.34 534.62 341.89 534.18 342.48 534.62 342.78 535.5 342.87 535.94 342.78 536.19 342.78 536.19 342.87 536.04 343.46 534.18 344.34 534.03 344.34 533.89 344.34 534.03 344.05 534.47 343.61 533.64 342.78 533.79 341.75 534.62 341.16 535.79 341.45 535.5 342.34"/><polygon class="cls-8" points="534.18 340.48 533.49 337.29 532.61 334.31 532.17 332.99 532.32 331.57 533.2 330.29 533.64 332.15 533.64 332.55 534.18 335.43 534.62 337.15 534.18 340.48"/><polygon class="cls-8" points="524.88 339.74 524.44 338.71 524 338.03 523.85 338.03 523.7 338.71 523.46 339.01 522.58 339.74 522.58 340.48 524 340.04 524.88 339.74"/><polygon class="cls-8" points="528.45 333.28 529.77 336.31 530.46 338.32 530.75 339.74 530.16 341.01 529.04 341.6 529.19 341.6 528.16 341.89 526.74 342.04 525.32 340.48 524.73 341.45 522.72 342.04 522.43 342.04 522.28 341.89 522.14 341.45 521.99 340.18 522.43 338.86 523.7 337.59 523.02 337 523.61 335.58 525.32 338.71 526.3 340.18 527.47 340.33 528.45 340.04 529.63 339.59 529.77 339.15 529.19 337.59 527.47 334.01 526.45 332.55 526.74 332.01 527.33 330.98 527.77 331.27 529.04 332.01 528.89 332.45 528.45 333.28"/><polygon class="cls-8" points="515.67 345.47 516.85 344.78 516.85 344.34 515.82 343.75 515.67 345.47"/><polygon class="cls-8" points="515.67 342.87 517.29 344.05 517.68 344.78 518.12 345.32 518.12 345.91 517.58 346.35 515.14 347.92 514.26 346.5 515.28 343.61 511.51 343.02 507.5 343.9 507.8 344.2 505.25 344.88 503.93 343.61 503.78 343.31 510.1 342.04 514.99 342.78 514.26 341.45 511.95 339.74 510.39 338.62 510.39 337.15 512.4 337.15 512.84 338.86 513.96 340.18 515.14 341.6 515.67 342.87"/><polygon class="cls-8" points="521.3 344.34 519.45 341.89 517.29 339.45 516.26 338.32 515.67 336.71 515.97 335.43 517.14 337 517.44 337.44 519.3 339.89 520.42 341.45 521.3 344.34"/><polygon class="cls-8" points="497.91 362.26 498.93 361.13 499.62 359.22 497.91 358.98 498.2 360.11 497.91 362.26"/><polygon class="cls-8" points="499.91 348.89 502.95 349.92 505.49 351.2 507.4 353.06 506.96 354.82 505.64 355.5 504.22 355.65 504.07 358.39 502.8 359.37 500.21 359.37 500.35 359.67 500.65 361.23 499.91 362.7 499.08 363.68 498.35 363.97 497.46 362.85 496.93 361.38 497.76 358.83 496.93 358.98 495.9 357.8 498.2 358.25 500.8 358.54 502.36 357.36 503.1 355.21 501.92 354.67 498.49 353.79 497.32 352.22 499.33 352.66 501.63 353.5 504.22 354.23 505.49 353.5 505.94 352.37 505.64 352.22 503.1 350.9 500.65 350.51 499.91 348.89"/><polygon class="cls-8" points="495.31 349.34 496.34 349.63 497.07 350.36 496.78 351.34 496.05 351.93 495.75 352.96 495.07 353.5 494.19 353.5 493.31 352.66 493.75 352.66 495.07 352.37 494.77 351.49 494.48 350.9 494.77 350.9 494.92 351.05 495.07 351.2 495.9 350.9 495.9 349.92 495.61 349.92 495.31 349.34"/><polygon class="cls-8" points="510.1 351.78 507.4 350.22 504.51 348.65 503.1 347.92 502.07 346.64 501.77 345.18 503.49 346.35 503.93 346.64 506.67 348.36 508.24 349.34 510.1 351.78"/><polygon class="cls-8" points="581.37 363.82 584.11 362.26 586.85 360.4 588.12 359.52 589.84 359.22 591.55 359.96 589.84 360.84 589.39 360.99 586.56 362.4 584.84 363.38 581.37 363.82"/><polygon class="cls-8" points="578.09 417.18 579.65 416.74 579.51 415.32 581.07 414.73 581.22 416.3 579.65 416.74 579.8 418.31 578.23 418.75 578.09 417.18"/><polygon class="cls-8" points="577.21 415.32 578.77 414.88 578.92 416.3 577.35 416.74 577.21 415.32"/><polygon class="cls-8" points="575.49 428.93 575.93 429.37 576.91 429.81 578.09 429.37 578.38 428.39 577.21 428.25 575.49 428.93"/><polygon class="cls-8" points="574.51 425.21 574.51 427.36 575.35 425.21 574.91 425.06 574.51 425.21"/><polygon class="cls-8" points="567.02 428.39 569.18 428.93 570.5 429.96 570.89 430.64 571.63 430.25 573.93 427.95 573.78 425.36 574.07 423.79 575.2 424.08 575.93 426.92 576.38 426.63 576.76 426.09 577.5 425.21 578.77 423.79 578.77 423.94 579.36 422.08 579.36 421.78 579.65 421.78 581.51 420.9 582.1 418.89 582.1 418.06 582.1 417.92 582.25 418.21 582.69 418.6 583.23 418.45 583.96 417.77 584.25 416.89 582.93 416.59 582.84 415.18 583.37 415.03 584.25 415.32 585.38 417.04 584.84 419.19 583.23 420.22 582.84 421.93 580.68 423.06 579.95 425.21 579.51 425.5 577.5 426.92 578.53 427.36 579.36 428.93 578.77 430.5 577.35 430.94 575.79 430.25 574.91 428.78 572.51 431.52 571.33 431.67 570.6 433.09 568.88 434.56 567.47 435.1 566.58 434.56 566.34 433.38 566.49 433.53 568.2 433.09 569.47 432.11 570.21 431.38 570.06 431.23 570.35 431.08 570.35 430.94 567.32 429.96 567.02 428.39"/><polygon class="cls-8" points="565.46 437.25 564.04 434.8 562.47 432.4 561.88 431.23 561.45 429.81 561.74 428.64 562.47 430.11 562.72 430.5 564.18 432.94 564.87 434.41 565.46 437.25"/><polygon class="cls-8" points="559.73 432.8 561.59 434.56 561.88 435.98 561.59 437.84 560.32 439.11 558.41 440.29 556.3 440.43 554.98 438.96 555.13 436.57 555.57 435.1 555.72 435.1 555.57 435.83 555.42 437.99 558.31 438.82 560.56 437.4 561.15 435.98 559.44 434.12 559.73 432.8"/><polygon class="cls-8" points="555.86 431.52 557.43 431.82 556.99 433.53 555.42 432.94 555.86 431.52"/><polygon class="cls-8" points="589.1 407.88 587.83 408.13 587.24 408.86 587.68 409.89 588.71 408.86 589.1 407.88"/><polygon class="cls-8" points="590.57 408.13 590.13 409.6 587.98 410.72 586.41 409.6 585.97 408.03 587.39 406.85 590.13 407 593.26 409.89 593.26 414.29 592.28 415.62 591.01 416.59 592.28 412.73 591.99 409.74 591.01 408.27 590.57 408.13"/><polygon class="cls-8" points="549.7 435.83 551.56 434.95 551.26 434.26 550.53 433.97 549.55 435.24 549.7 435.83"/><polygon class="cls-8" points="538.93 442.15 539.07 441.41 538.63 440.29 537.95 439.99 537.36 440.82 538.93 442.15"/><polygon class="cls-8" points="531.63 435.98 532.76 437.99 532.91 439.7 532.91 440.68 534.33 440.82 536.33 440.82 538.34 438.43 539.51 439.11 539.95 440.68 539.81 441.85 542.35 441.85 544.51 441.41 546.96 440.43 544.36 439.41 543.24 439.85 543.09 440.14 544.95 437.99 545.1 437.99 545.39 437.69 547.1 436.81 549.11 435.98 548.96 434.8 549.7 433.24 550.82 432.26 552.98 435.1 550.82 436.66 549.84 436.81 550.38 438.13 549.55 436.96 547.98 437.55 546.51 438.28 546.96 438.57 548.82 439.26 551.12 439.26 550.82 440.97 547.1 442 544.65 442.98 541.08 443.57 539.51 442.44 538.63 442.98 537.8 443.42 537.36 443.13 536.19 442.15 535.21 442.59 534.18 442.59 532.61 441.27 532.47 441.56 531.05 442.29 528.89 442 527.47 441.27 527.18 440.29 527.62 439.11 527.77 439.41 529.33 440.43 530.9 440.58 531.88 440.58 532.17 440.29 530.75 437.25 531.63 435.98"/><polygon class="cls-8" points="525.17 434.12 526 437.55 524.14 440.68 520.42 440.68 519.45 439.99 518.27 438.82 517.98 438.57 518.86 438.82 522.28 439.55 524.44 439.11 525.32 438.13 524.14 435.24 525.17 434.12"/><polygon class="cls-8" points="508.24 430.4 508.24 429.22 507.94 428.39 506.96 428.64 507.4 429.81 508.24 430.4"/><polygon class="cls-8" points="507.65 431.82 506.52 431.08 506.08 428.78 507.5 427.51 508.97 427.36 509.65 428.93 509.12 431.08 511.42 431.67 511.81 431.67 511.66 431.96 512.84 433.53 514.84 433.97 515.82 433.82 515.67 433.97 515.28 434.41 515.43 434.95 516.26 435.54 517.14 435.69 517.14 434.41 518.42 433.97 518.56 433.97 518.71 434.66 518.56 435.54 517.14 436.81 514.99 436.57 513.82 435.24 512.1 434.95 510.68 433.09 508.38 432.5 508.24 432.4 505.49 434.12 501.33 433.09 500.35 431.82 499.77 430.4 503.24 432.5 505.94 432.94 507.5 432.26 507.65 431.82"/><polygon class="cls-8" points="509.41 420.9 509.51 422.62 509.26 422.76 508.09 423.5 506.23 426.09 504.95 428.1 503.24 429.52 500.94 429.52 498.49 427.8 497.61 422.91 499.62 421.93 500.94 421.78 500.94 421.93 500.5 422.08 498.93 422.76 498.35 424.33 499.62 426.48 501.92 428.25 503.24 428.49 503.78 428.1 505.35 425.8 507.26 423.2 507.8 421.64 509.41 420.9"/><polygon class="cls-8" points="491.74 408.03 492.03 409.15 493.06 410.72 494.33 409.74 493.16 409.3 491.74 408.03"/><polygon class="cls-8" points="501.92 414.15 500.06 416.06 498.05 417.77 495.61 418.75 494.04 417.77 493.75 416.45 494.19 415.32 491.59 414.05 491.3 412.58 492.77 410.87 492.33 410.87 490.91 410.13 490.02 408.86 489.88 407.88 490.17 407.29 491.44 407.44 492.91 407.88 494.48 409.6 494.92 409.15 496.34 409.01 494.77 410.13 493.06 411.75 493.31 413.31 495.07 414.59 495.9 414.15 498.49 412.14 500.21 411.75 497.17 414.29 495.46 415.91 495.75 417.04 496.78 417.77 497.07 417.62 499.08 416.06 500.35 414.29 501.92 414.15"/><polygon class="cls-8" points="496.34 421.34 498.64 419.48 500.94 417.48 501.92 416.45 503.34 415.91 504.66 415.91 503.24 416.89 502.95 417.18 500.65 419.19 499.33 420.31 496.34 421.34"/><polygon class="cls-8" points="503.1 411.01 502.36 411.6 501.48 411.89 500.8 411.45 500.65 410.87 499.91 410.43 499.91 409.89 500.35 409.45 501.63 409.15 501.33 409.3 500.8 410.13 501.63 410.28 502.21 410.13 502.07 410.28 501.92 410.28 501.77 410.43 501.48 411.01 502.21 411.31 502.51 411.16 503.1 411.01"/><polygon class="cls-8" points="571.04 334.85 571.48 334.45 571.48 334.01 570.89 334.01 570.75 334.6 571.04 334.85"/><polygon class="cls-8" points="570.21 335.43 569.91 334.85 570.5 333.72 571.63 333.57 572.36 333.87 572.07 334.7 570.89 335.58 568.49 335.87 566.88 334.7 566.88 334.01 567.02 333.43 567.91 334.7 569.03 335.43 570.06 335.43 570.21 335.43"/><polygon class="cls-8" points="490.47 348.36 490.61 348.36 493.89 350.22 494.04 350.36 493.06 350.36 490.76 349.34 489.58 348.5 489.73 348.36 490.47 348.36"/><polygon class="cls-8" points="554.4 329.41 554.98 328.83 554.98 328.43 554.15 327.99 554 328.83 554.4 329.41"/><polygon class="cls-8" points="553.42 330 552.83 329.12 553.56 327.7 555.13 327.7 556.3 328.29 556.01 329.41 554.3 330.29 553.86 330.29 553.71 329.85 553.42 330"/><polygon class="cls-8" points="587.39 350.36 588.27 350.51 588.71 350.07 588.56 349.34 587.68 349.63 587.39 350.36"/><polygon class="cls-8" points="586.41 349.63 586.85 348.8 588.42 348.5 589.25 349.92 589.39 351.05 588.42 351.64 586.7 350.66 586.41 350.36 586.85 349.92 586.41 349.63"/><polygon class="cls-8" points="493.16 357.95 492.62 357.36 492.18 357.36 492.03 357.95 492.77 358.1 493.16 357.95"/><polygon class="cls-8" points="493.6 358.69 493.06 358.98 492.03 358.39 491.74 357.22 492.03 356.53 492.91 356.82 493.75 357.95 494.04 360.4 492.91 361.96 492.18 361.96 491.59 361.82 492.91 360.99 493.6 359.81 493.6 358.83 493.6 358.69"/><polygon class="cls-8" points="595.56 358.54 596 359.37 596 359.52 594.14 358.83 591.55 356.68 590.86 355.36 591.11 355.36 595.42 358.1 595.56 358.25 595.56 358.54"/><polygon class="cls-8" points="566.19 331.71 566.88 332.3 567.02 332.55 565.02 332.55 561.74 331.71 560.56 330.69 560.86 330.69 565.9 331.57 566.04 331.57 566.19 331.71"/><polygon class="cls-8" points="548.52 326.43 549.4 326.82 549.55 326.96 547.54 327.55 544.12 327.55 542.79 326.96 543.09 326.82 548.13 326.28 548.23 326.28 548.52 326.43"/><polygon class="cls-8" points="538.34 343.9 539.22 344.2 539.37 344.2 537.8 345.32 534.33 346.2 533.05 346.06 533.2 345.91 537.95 343.9 538.05 343.9 538.34 343.9"/><polygon class="cls-8" points="528.6 326.82 529.63 326.82 529.87 326.82 528.45 328.29 525.47 330 524 330.29 524.14 330 528.3 326.96 528.45 326.82 528.6 326.82"/><polygon class="cls-8" points="521.7 329.71 522.72 329.41 522.87 329.41 521.84 331.13 519.3 333.43 517.98 334.01 517.98 333.72 521.45 329.85 521.6 329.71 521.7 329.71"/><polygon class="cls-8" points="523.31 344.49 524.14 344.2 524.29 344.2 523.61 345.91 521.45 348.65 520.13 349.34 520.13 349.04 523.02 344.78 523.02 344.64 523.31 344.49"/><polygon class="cls-8" points="510.39 333.72 511.42 333.43 511.51 333.43 510.83 335.29 508.53 337.88 507.4 338.62 507.4 338.32 510.1 334.01 510.24 333.87 510.39 333.72"/><polygon class="cls-8" points="581.66 340.87 582.39 341.75 582.39 341.89 580.39 341.6 577.21 340.33 576.23 339.3 576.52 339.3 581.37 340.72 581.51 340.87 581.66 340.87"/><polygon class="cls-8" points="581.37 402.25 581.96 401.57 582.1 401.42 582.39 403.28 581.96 406.71 581.22 408.03 581.07 407.73 581.22 402.69 581.22 402.4 581.37 402.25"/><polygon class="cls-8" points="506.38 407.73 506.23 407.88 502.95 409.74 502.8 409.74 503.34 408.86 505.35 407.29 506.67 406.85 506.67 407 506.38 407.73"/><polygon class="cls-8" points="577.94 407.15 578.53 406.41 578.67 406.26 578.92 408.27 578.53 411.75 577.79 412.87 577.65 412.58 577.79 407.59 577.79 407.44 577.94 407.15"/><polygon class="cls-8" points="575.49 414.59 575.05 414.05 574.51 413.9 574.07 414.59 574.91 414.88 575.49 414.59"/><polygon class="cls-8" points="575.79 415.76 574.91 416.06 573.63 415.32 573.93 413.75 574.51 412.73 575.64 413.02 576.38 414.88 576.38 415.18 575.79 415.32 575.79 415.76"/><polygon class="cls-8" points="571.18 416.89 572.07 416.45 572.21 416.3 571.77 418.31 570.06 421.34 568.88 422.22 568.88 421.93 570.89 417.33 571.04 417.04 571.18 416.89"/><polygon class="cls-8" points="566.34 425.36 566.19 424.77 565.9 424.48 565.46 424.92 565.9 425.36 566.34 425.36"/><polygon class="cls-8" points="566.34 426.38 565.75 426.24 565.02 425.21 565.46 424.23 566.19 423.64 566.73 424.33 566.73 425.94 565.75 428.1 563.89 428.64 563.3 428.39 562.86 427.95 564.48 427.95 565.75 427.22 566.34 426.48 566.34 426.38"/><polygon class="cls-8" points="561.74 424.62 562.57 424.33 562.86 424.33 561.88 426.09 559.29 428.39 558.02 428.93 558.16 428.64 561.45 424.77 561.59 424.62 561.74 424.62"/><polygon class="cls-8" points="554.69 428.93 554.84 428.1 554.4 427.66 553.71 427.95 554.15 428.64 554.69 428.93"/><polygon class="cls-8" points="554.3 429.96 553.42 429.66 552.98 428.25 554.15 427.07 555.28 426.78 556.01 427.8 555.28 429.66 554.98 429.96 554.54 429.66 554.3 429.96"/><polygon class="cls-8" points="551.12 429.81 551.12 429.08 550.97 428.78 550.38 428.93 550.67 429.52 551.12 429.81"/><polygon class="cls-8" points="550.67 430.5 550.14 430.25 549.99 429.08 550.82 428.25 551.7 428.1 551.85 428.93 551.26 430.4 549.4 431.82 547.39 431.67 547.1 431.23 546.81 430.5 548.37 431.23 549.7 431.23 550.53 430.64 550.67 430.5"/><polygon class="cls-8" points="545.24 431.67 546.22 431.82 546.37 431.82 544.8 433.09 541.67 434.41 540.2 434.41 540.35 434.12 544.95 431.67 545.1 431.67 545.24 431.67"/><polygon class="cls-8" points="539.95 434.8 540.35 435.83 540.05 436.66 539.07 437.1 538.19 436.81 537.21 437.1 536.33 436.81 535.94 436.13 536.19 434.8 536.33 435.1 537.21 436.27 537.95 435.54 538.19 434.95 538.19 435.1 538.19 435.24 538.34 435.54 538.93 436.13 539.81 435.69 539.66 435.39 539.95 434.8"/><polygon class="cls-8" points="539.66 431.23 540.35 431.38 540.35 431.52 539.22 432.11 536.63 432.5 535.65 432.4 535.94 432.26 539.37 431.23 539.51 431.23 539.66 431.23"/><polygon class="cls-8" points="533.35 431.52 534.33 431.82 534.47 431.96 532.61 432.8 529.19 433.38 527.86 432.94 528.01 432.8 533.05 431.52 533.2 431.52 533.35 431.52"/><polygon class="cls-8" points="527.62 429.81 528.6 430.4 528.6 430.5 526.74 431.08 523.31 431.08 521.99 430.5 522.28 430.4 527.33 429.81 527.47 429.81 527.62 429.81"/><polygon class="cls-8" points="519.69 429.37 520.28 428.93 520.42 428.64 519.84 428.39 519.59 428.93 519.69 429.37"/><polygon class="cls-8" points="518.86 429.66 518.71 429.08 519.45 428.1 520.57 428.1 521.3 428.49 520.87 429.37 519.59 429.96 517.14 429.81 515.82 428.39 515.82 427.8 516.12 427.07 516.7 428.64 517.68 429.52 518.71 429.81 518.86 429.66"/><polygon class="cls-8" points="510.98 424.08 511.81 424.08 512.25 423.64 511.81 422.76 511.12 423.35 510.98 424.08"/><polygon class="cls-8" points="509.95 423.64 510.24 422.62 511.51 422.22 512.69 423.2 513.13 424.48 512.1 425.06 510.24 424.48 509.95 424.33 510.24 423.79 509.95 423.64"/><polygon class="cls-8" points="510.24 418.89 510.83 418.6 510.98 418.21 510.54 417.92 510.24 418.45 510.24 418.89"/><polygon class="cls-8" points="509.41 419.19 509.41 418.6 510.1 417.77 511.27 417.77 511.95 418.21 511.42 419.04 509.95 419.48 507.5 419.19 506.38 417.62 506.52 417.04 506.82 416.3 507.4 417.92 508.24 418.89 509.26 419.19 509.41 419.19"/><polygon class="cls-8" points="498.05 407.29 498.79 407.29 499.08 407 498.64 406.56 498.2 406.85 498.05 407.29"/><polygon class="cls-8" points="497.17 407.15 497.32 406.56 498.49 406.12 499.47 406.71 499.77 407.29 499.08 407.88 497.61 407.73 495.61 406.41 495.17 404.55 495.46 403.96 496.05 403.57 495.75 405.14 496.34 406.41 496.93 407.15 497.17 407.15"/><polygon class="cls-8" points="525.61 396.67 523.46 394.66 525.32 392.36 527.47 394.37 525.61 396.67"/><polygon class="cls-8" points="528.6 393.78 530.46 391.38 532.61 393.54 530.61 395.94 528.6 393.78"/><polygon class="cls-8" points="521.01 378.17 519 376.16 520.87 373.71 522.87 375.87 521.01 378.17"/><polygon class="cls-8" points="524 375.33 525.86 372.88 528.01 375.04 526.15 377.34 524 375.33"/><polygon class="cls-8" points="559.58 402.55 561.15 401.71 561.59 401.71 561.74 401.71 559.73 405.87 560.42 407.73 562.57 408.42 563.89 408.13 565.02 407 562.86 407.44 561 406.85 560.17 404.99 561.15 402.99 563.89 401.71 564.04 400.69 562.86 400.83 561.59 400.54 561.15 400.54 560.02 400.98 559.58 402.25 559.58 402.55"/><polygon class="cls-8" points="568.49 369.41 568.49 368.57 568.2 368.13 567.61 368.43 568.05 369.16 568.49 369.41"/><polygon class="cls-8" points="568.2 370.43 567.61 370.14 567.17 368.72 567.91 367.55 568.74 367.15 569.18 368.13 568.88 369.99 567.02 372.44 564.87 372.74 564.33 372.15 563.89 371.41 565.75 371.85 567.17 371.56 568.2 370.73 568.2 370.43"/><polygon class="cls-8" points="531.78 369.99 551.12 362.7 555.57 361.13 560.02 360.25 562.33 360.99 556.7 362.85 555.28 363.24 545.83 366.71 540.2 368.72 531.78 369.99"/><polygon class="cls-8" points="529.48 360.99 539.66 357.51 541.96 356.82 544.36 356.53 545.83 357.07 542.79 357.95 542.06 358.25 537.21 359.81 534.18 360.69 529.48 360.99"/><polygon class="cls-8" points="548.52 370.14 556.01 367.55 557.58 367.01 559.44 366.86 560.56 367.25 558.41 367.99 557.87 368.13 554.15 369.26 552 369.85 548.52 370.14"/><polygon class="cls-8" points="524.59 409.74 532.02 407.29 533.79 406.71 535.5 406.56 536.63 407 534.47 407.59 533.89 407.73 530.16 408.86 528.01 409.6 524.59 409.74"/><polygon class="cls-8" points="537.51 417.48 539.37 411.16 539.66 409.74 540.49 408.27 541.37 407.88 540.79 409.6 540.64 410.13 539.66 413.17 539.07 415.03 537.51 417.48"/><polygon class="cls-8" points="548.81 377.05 548.13 376.75 547.54 376.16 546.96 374.3 547.69 371.01 547.84 371.86 549.11 374.3 550.52 372.3 551.11 371.01 551.11 372.44 552.15 373.71 553.56 372.3 553.56 371.56 554 369.99 554.39 372.58 553.86 375.03 552.15 376.16 550.67 375.71 548.81 377.05"/><path class="cls-8" d="M563.75,392.51l-13-2.69,9.27-5.05,2.15,2.75-1.47-2.89,2.15-.73,5.19-3.13-1.17-4.17-3.72-3-2.84,2.3-1.76,3.87.44,2.74a177.24,177.24,0,0,0-16.35,9.06l18.06,2.54-17.33,8.47-.14.15-2.15-17.32,7-8.62-7.34,6.75-1.46-11.3-2.48,4.49,1,7.64H534l-3.13-4.75-7.44,6.32-5.78,2.74-4.4-.59-1.47-3.72,1.62-6.17.53-1.41-.15-.15L512,380l-1.57,6.46,1.72,6.17,4.6.58,5.43-2.52,8-8.35,2.18,3.58,2.48.84,3.42-.59,1.62,9.59-13.51,7.64-5.16,1.32L518.56,403l-1.13-8.92-1.61,12.05,4.61,1.61,7-1.61,12.73-8.56,3.62,11L549,407l-3.87-2.16,20-10.39Zm-1.57-14.78,1.72.88.68,1.42-4.41,2-.29-1.26Z"/><polygon class="cls-8" points="588.86 415.18 586.26 414.05 583.37 413.02 582.25 412.43 581.07 411.45 580.53 410.13 582.1 411.01 582.54 411.16 585.09 412.29 586.7 413.02 588.86 415.18"/><path class="cls-8" d="M613.92,330.54l13.36-1.27-32.4,21.09c-.88-1.37-1.72-2.54-2.45-3.57Z"/><path class="cls-9" d="M540.46,201.86c-102.53,0-185.65,82.76-185.65,184.84s83.12,184.85,185.65,184.85S726.13,488.79,726.13,386.7,643,201.86,540.46,201.86ZM564.58,380l-4.41,2-.29-1.26,2.3-3,1.72.88Z"/><path class="cls-8" d="M534.3,537.17l-1-.07c-28.85-2-55.57-13.13-74.88-26.14-.39-13.67-.24-18.08-7-27.68-5-7.11-9.22-14.69-17.61-17.71-1,16.82,3,19.35,7.12,31.88l-14.71-12.54c1.54-10.51,7.09-13.78,2.87-26.86-2.27-7-7.52-16.11-11.73-19.46-3.28,10.27-5.05,21.2-2.15,32.27-1.28-2.21-7.75-10.73-8.66-13.78-2.23-7.44,18.43-15.68-2.4-51.85L401,410.4c-.56,1.46-1.34,4.42-1.76,6.06a124.23,124.23,0,0,0-2.25,13.61c-7.79-21.48-4.89-13.8,1.88-27.23,5.28-10.47,5-24.85,3.95-37.68-5.27,3-8.37,8-11.25,13.14l-4.11,5.3.23-13.94c9.47-5.4,11.36-1.37,16-15.05A76,76,0,0,0,407.29,328c-7.88,1.16-10.28,8.25-15.26,12.75l3.05-12.89c10.59-1.52,12.43-2.3,17.72-8.74,4.14-5,8.21-11.37,10-19.05-10.53,1.77-11.3,4.86-17.78,7.67,1.58-4.56,4.44-8,6.81-11.51,9.37.58,12.91-.07,18.87-5.44,4-3.58,9.31-8.13,11-15.48-11.05,1.27-12.48,3.6-20.29,7,2.87-4.78,6.25-7.13,8.86-11.58,17.9,4.26,24.48-1.57,30.15-14.27-6.55-1.28-8.83,0-14.7,1l5.17-5.67c14.18,1.94,19.93,4.16,31.64-5.58l3.36-3.35c-3.33-1.8-4.2-1-7.83-1.75l-3.41-1c13.59-2.68,35.46,1.79,43.58-14.45-9.23-5.92-28.14-7.41-36.62,1.09-5,5-2.71,7-10.3,7l3.67-5.7a19.14,19.14,0,0,0,2.75-6.27c-25.66,3.79-20.42,21.45-33.39,27.59,1.64-4.48,3.81-7.24,4.29-12.78-6.84,1.53-14,8.39-17.38,12.4-6,7.16-3.72,13.81-8,22.52-.27-.35-.57-1.38-.64-1.17l.29-18.92c-4.93,2.08-15.39,14.82-17.25,23.48-4.19,19.47,7.24,6.91-8,32.21.36-8.09,6-20.76-.74-27.68-22.63,37.49-1.34,43.34-11.69,58.91L381,318.79c-6.36,4.63-9,18.39-9.86,25.88-.63,5.47-.08,10.49,2.07,14.87,7.31,14.89,8.1-4,7.93,28-1.36-5.95-8-20.74-11.51-24-5.91,11.21-3.92,30.83,2.38,39.38,9.46,12.84,15.3.4,18.52,30-6.42-9.37-10.12-18.85-19.58-23.56-9.21,14.26,7.64,36.36,19.32,43.83,7.16,4.59,11.17,2,12.5,11.48l-5.46-2.55c-4.84-3.13-9.92-6.44-16.09-8.18,1.89,21.81,15.77,30.57,33.86,34.16,5.2,1,8.87,1.51,12.39,5.9,1.86,2.32.32-.36,1.57,2.47-6-.39-16.88-4.34-25.47-5.41,3.95,14,22,27,36,27.56,10.33.43,10.76-4.65,18-.6,21.63,12.08,32.09,16.47,57.73,23.35q5.81-1.57,19-4.22Zm13.83,8.1h0c17.75,2.27,35.42,16.32,40.11,15.35,1.6-6.59-4.86-9.31-9.75-11.71-3.92-1.93-8.71-4.41-12.34-6q-6.95.75-18,2.32Z"/><path class="cls-10" d="M569.68,228.4c3.8,15.32,17.63,17.88,31.07,15.9,3.82,11.64,8.1,15,22.32,12.07,8.41,12,2.25,14.05,22.09,15.64,0,16.73,4,17.36,18.52,20.26-.76,14.47-.51,23.68,12.25,27.09-1.12,19.13.3,21,11.43,30.52-5.33,14.09-1.06,16.34,3.39,26.38-7.86,15.32-9.72,7.09-4.12,27.73-9.26,11.18-8.24,9.08-7.43,26.4-13.78,6.65-14.15,8.16-13.24,27.09-14.73,2.77-16.88,11.81-18.84,27.28-35.36,4.16-28,27.16-31.34,33.39C604.62,528,576.61,535,552.54,536.87h0c-2.17.16-4.3.29-6.38.37q-8.89,1.08-27.14,5.14c-2.18,1.81-.25.62-3.55,2.18-1.16.54-3.55,1.33-4.89,1.81-5.12,1.84-19.44,5.61-20.46,10.8-.9,4.56,3,4.43,6.29,3,.2-.08,4.06-2.47,5.14-3a124.29,124.29,0,0,1,37.14-11.84l1.08-.15h0a155.55,155.55,0,0,1,24.52-3c22.51-3.7,38.32-7.73,54.72-18.15,9.63-6.11,38.26,6.26,37.88-32.19,23.87-.22,31.57-4.76,30.82-28.47,14.3-7.16,13.82-10,14.34-28.39.14-4.9,5.58-5.79,7.82-13.24,2.78-9.28-2.15-11.7-3.73-17.77,4.85-3.62,9.47-5.94,8.73-14.1-.49-5.38-4.46-13.55-6.58-17.59,3.91-4,8-8.55,5.81-18.25-1.81-8.07-6.68-10.57-10.77-14.75,7.95-21.28,0-16.72-10.29-26.41,4.84-17.57-2.42-25.05-20-27.85,1.88-31.77-8.38-19.27-18.64-26.81-3.14-2.69.16,1.64-1.79-2.38a20.75,20.75,0,0,1-1.26-4c-3-11.18-10.56-10.67-21.69-10.81-3.75-6-2.64-9.81-9.87-12.28-5.35-1.83-15.86,1.54-19.55-1.36-10.25-8.06-13.77-13.07-27-2.65-2.86,2.25-1.5.74-3.6,3.63Zm106.19,81.74h0c-8.3-2.14-7.9-12.1-6.73-21.39,8.19.2,18.2,4.57,17.91,11.55-2.72,1.65-5.06,1.72-9.46,1.36.24,5.95.86,4.48-1.72,8.48Zm7.68,110.39h0c1.66-10,7.67-16.16,14.62-19,3.23,5.51,7.83,12.71,6.32,20.31-6.13,2-5.62-1-8.85-4.32l-12.09,3Zm9.5,8.74h0c4,8.88,7.59,22-4.74,25.33a85.94,85.94,0,0,0-4-8.91C656.58,443.92,682.83,431.63,693.05,429.27Zm-41.52,60.07h0c.16,11.82-.14,20.74-10,22.89-5.29-5.53,1.27-4.44-6.95-7.48-15.12-5.59-5-14.15,16.93-15.41Zm30.6-30.84h0c2.53,12.29.46,22.77-10.22,24.23-.1-.41-1.91-10.09-3-8.34l-3.41-1c-2.77-.83-2.31.11-4.49-2C654.67,465.43,666.37,458.09,682.13,458.5ZM576.39,229.73h0c3.43-3.35,11.75-8.29,17.26-4-2.46,4.08-.41,1-5.58,4l.41,8.76c-6.77-.85-9.56-4.76-12.09-8.77ZM656.54,280h0c-10.72-1.91-6.91-16.56-5-17.51.19-.1,13.27.58,15.23,8.7l-8.86,2.6Zm-20.27-18.24h0c-7.41-1.05-8.93-6.62-8.49-15.41,7.84-1.25,12.55.13,18.43,2.32-2.62,6.8-3.1,2.69-6.61,5.42-3.18,2.47-.49,2.91-3.33,7.67ZM601,234.18h0c7.59-3.74,15.32-3.87,19.27,2.15-2.15,3.63.77,1.87-5.87,3,.41,7.05,1.3,6-2.53,9.46-5.39-.84-9.62-8.36-10.87-14.57Zm90.07,154.55h0c-2-7.67,4.84-13.15,9.89-15.59,3.07,2.23,12.88,13.31,6.17,19.51-6.25-.38-1.37-.4-7.49-4.64-1.87.68-2.63,1.18-4.23,1.35-3,.33-2.28.19-4.34-.63Zm-4.63-53.41h0c-4.27-1.3-5.38-2.9-5.76-9.18-.27-4.35.91-8.2,1.8-12.14,7.2,1.55,17.43,8.37,17.11,16.05-6.05,0-4.28-.64-9-2.16C688.31,332.16,689.87,332.1,686.44,335.32Zm13.2,21.18h0c-2.73,3.4-2.17,5.93-5.64,6.38-4,.51-3.85-2.15-3.6-6.2.39-6.16,4.07-11.32,6.83-14.17,5.37,2.59,13.45,7.92,12,17-4.73,1-6-1.06-9.59-3Z"/><path class="cls-11" d="M675.87,310.14c2.58-4,2-2.53,1.72-8.48,4.4.36,6.74.29,9.46-1.36.29-7-9.72-11.35-17.91-11.55C668,298,667.57,308,675.87,310.14Zm7.68,110.39h0l12.09-3c3.23,3.28,2.72,6.36,8.85,4.32,1.51-7.6-3.09-14.8-6.32-20.31-6.95,2.83-13,9-14.62,19Zm9.5,8.74h0c-10.22,2.36-36.47,14.65-8.72,16.42a85.94,85.94,0,0,1,4,8.91C700.64,451.22,697.06,438.15,693.05,429.27Zm-41.52,60.07h0c-21.92,1.26-32,9.82-16.93,15.41,8.22,3,1.66,1.95,6.95,7.48,9.84-2.15,10.14-11.07,10-22.89Zm30.6-30.84h0c-15.76-.41-27.46,6.93-21.12,13,2.18,2.07,1.72,1.13,4.49,2l3.41,1c1.09-1.75,2.9,7.93,3,8.34C682.59,481.27,684.66,470.79,682.13,458.5ZM576.39,229.73h0c2.53,4,5.32,7.92,12.09,8.77l-.41-8.76c5.17-3,3.12.11,5.58-4-5.51-4.33-13.83.61-17.26,4ZM656.54,280h0l1.34-6.21,8.86-2.6c-2-8.12-15-8.8-15.23-8.7C649.63,263.43,645.82,278.08,656.54,280Zm-20.27-18.24h0c2.84-4.76.15-5.2,3.33-7.67,3.51-2.73,4,1.39,6.61-5.42-5.88-2.19-10.59-3.57-18.43-2.32C627.34,255.13,628.86,260.7,636.27,261.75ZM601,234.18h0c1.25,6.21,5.48,13.73,10.87,14.57,3.83-3.48,2.94-2.41,2.53-9.46,6.64-1.09,3.72.67,5.87-3-3.95-6-11.68-5.89-19.27-2.15Zm90.07,154.55h0c2.06.82,1.36,1,4.34.63,1.6-.17,2.36-.67,4.23-1.35,6.12,4.24,1.24,4.26,7.49,4.64,6.71-6.2-3.1-17.28-6.17-19.51-5.05,2.44-11.92,7.92-9.89,15.59Zm-4.63-53.41h0c3.43-3.22,1.87-3.16,4.11-7.43,4.76,1.52,3,2.15,9,2.16.32-7.68-9.91-14.5-17.11-16.05-.89,3.94-2.07,7.79-1.8,12.14C681.06,332.42,682.17,334,686.44,335.32Zm13.2,21.18h0c3.56,1.91,4.86,4,9.59,3,1.45-9-6.63-14.37-12-17-2.76,2.85-6.44,8-6.83,14.17-.25,4.05-.35,6.71,3.6,6.2,3.47-.45,2.91-3,5.64-6.38Z"/><polygon class="cls-8" points="718.84 484.72 724.78 502.59 744.1 502.55 728.45 513.55 734.45 531.39 718.84 520.33 703.23 531.39 709.24 513.55 693.59 502.55 712.91 502.59 718.84 484.72"/><polygon class="cls-8" points="359.8 483.34 365.74 501.2 385.06 501.17 369.41 512.17 375.42 530.01 359.8 518.95 344.19 530.01 350.2 512.17 334.55 501.17 353.87 501.2 359.8 483.34"/><path class="cls-12" d="M318.16,439.51l-2.65-9.37,16-4.52a12.67,12.67,0,0,1,4.72-.42,10.08,10.08,0,0,1,4.44,1.58,11.2,11.2,0,0,1,3.28,3.13,22,22,0,0,1,2.75,6.31,47.65,47.65,0,0,1,1.09,4.91,14.55,14.55,0,0,1,.15,4.69,11,11,0,0,1-1.4,3.87,8.52,8.52,0,0,1-2.52,2.87,14.81,14.81,0,0,1-4.29,2.15l-16,4.52-2.65-9.37,16.36-4.63a4.54,4.54,0,0,0,3-2.33,5.76,5.76,0,0,0,.15-4.17,5.7,5.7,0,0,0-2.29-3.44,4.49,4.49,0,0,0-3.82-.4l-16.36,4.62Zm-4.36-21.4-.7-9.07,14.44-13-15.35,1.18-.7-9.18,27.79-2.14.71,9.19L325.63,408l15.26-1.17.7,9.14Zm-1.74-41.22.74-9.75,27.8,2.12-.75,9.76Zm.88-16.61,1.83-10,21-3.37-18.47-10.51,1.78-9.73,25.31,16.54-1.91,10.39-29.56,6.7Zm8.73-42L331.3,294l5.54,2.2-6,15.15,4.12,1.64,5.58-14,5.29,2.1-5.59,14,5.1,2,6.2-15.6,5.86,2.33-9.81,24.69-25.9-10.3Zm37.73-19.43-24.09-14,8.17-14a26.76,26.76,0,0,1,4.07-5.62,7.35,7.35,0,0,1,4.13-2,7.72,7.72,0,0,1,7.55,4,8.19,8.19,0,0,1,.81,4,12.45,12.45,0,0,1-.77,3.51,10.15,10.15,0,0,1,2.16-1.67,10.29,10.29,0,0,1,2.05-.61,10.7,10.7,0,0,1,2.19-.3L375,272l-5.55,9.52-10,.23a6.84,6.84,0,0,0-2.74.44A4.48,4.48,0,0,0,355,284l-.43.74,9.75,5.68-4.92,8.46ZM350,282.06l2.08-3.56a17.85,17.85,0,0,0,1-2.43,2.57,2.57,0,0,0,0-1.81,2.35,2.35,0,0,0-1.09-1.34,2.4,2.4,0,0,0-2.28-.21,6.4,6.4,0,0,0-2.46,2.78l-2.16,3.71,4.91,2.86ZM369,265.27l5.36-7.56a5.78,5.78,0,0,0,3.13.93,5.47,5.47,0,0,0,4-2.32,5.16,5.16,0,0,0,1.33-3,2.47,2.47,0,0,0-.87-2.13,2.43,2.43,0,0,0-2.18-.37q-1.34.3-4.36,2.88-5,4.23-8.34,5a6.49,6.49,0,0,1-5.92-1.2,6.61,6.61,0,0,1-2.28-3.62,9.1,9.1,0,0,1,.29-5.19,22.11,22.11,0,0,1,4-6.74c2.52-3.16,4.94-5.15,7.3-6a8.38,8.38,0,0,1,7.3,1l-5.33,7.47a4.24,4.24,0,0,0-3.11-.51,5.35,5.35,0,0,0-2.7,2,4.38,4.38,0,0,0-1.1,2.41,1.9,1.9,0,0,0,.68,1.63,1.5,1.5,0,0,0,1.37.2,8.42,8.42,0,0,0,2.83-1.91,45.11,45.11,0,0,1,7.62-5.61,9.33,9.33,0,0,1,4.93-1.23,7.18,7.18,0,0,1,4,1.59,8.17,8.17,0,0,1,2.82,4.39,10.27,10.27,0,0,1-.24,5.81,21.22,21.22,0,0,1-3.81,6.66q-5,6.3-9.08,7a10.25,10.25,0,0,1-7.62-1.59ZM379.06,225l7.11-6.72,19.14,20.27-7.11,6.71L379.06,225Zm12.55-11.84L415,195l4.23,5.45-7.87,6.1,12.86,16.58-7.69,6-12.86-16.58-7.87,6.11Zm57.07-9.75-9.86,5,.66,4.81-8.88,4.49-2-30.23,9.52-4.82,23.13,19.54-9.11,4.61ZM444.12,199l-7.6-7.39,1.44,10.5Zm15.5-6.13,8.6-3.45a5.71,5.71,0,0,0,2.13,2.47,5.48,5.48,0,0,0,4.62.21,5.17,5.17,0,0,0,2.76-1.84,2.52,2.52,0,0,0,.43-2.27,2.45,2.45,0,0,0-1.63-1.49c-.86-.31-2.6-.28-5.24.07-4.32.57-7.56.47-9.74-.27a6.49,6.49,0,0,1-4.33-4.21,6.71,6.71,0,0,1,0-4.29,9.18,9.18,0,0,1,3.05-4.2,22.2,22.2,0,0,1,7-3.52q5.71-1.94,9.36-1.07a8.36,8.36,0,0,1,5.61,4.78l-8.53,3.39a4.21,4.21,0,0,0-2.34-2.11,5.32,5.32,0,0,0-3.34.22,4.27,4.27,0,0,0-2.22,1.42,1.87,1.87,0,0,0-.32,1.75,1.52,1.52,0,0,0,1,.9,8.39,8.39,0,0,0,3.41-.07,44.34,44.34,0,0,1,9.45-.6,9.37,9.37,0,0,1,4.81,1.64,7.18,7.18,0,0,1,2.51,3.5,8.18,8.18,0,0,1,0,5.22,10.39,10.39,0,0,1-3.34,4.76,21.19,21.19,0,0,1-6.81,3.54c-5.08,1.72-8.9,2-11.43,1a10.3,10.3,0,0,1-5.55-5.46Zm47.12-32.29,12.82-1,6.17,16.54,3.61-17.28,12.77-1,2.1,27.79-8,.61-1.6-21.19-4.53,21.65-7.21.55-7.73-20.73,1.61,21.19-8,.6-2.1-27.79Zm67.54.53,9.67,1.19-2,16.48a12.6,12.6,0,0,1-1.43,4.52,10.15,10.15,0,0,1-3.18,3.48,11.31,11.31,0,0,1-4.16,1.81,22.28,22.28,0,0,1-6.88.09c-1.52-.19-3.17-.49-4.95-.89a14.41,14.41,0,0,1-4.38-1.68,11.4,11.4,0,0,1-3-2.79,8.61,8.61,0,0,1-1.67-3.44,14.85,14.85,0,0,1-.32-4.79l2-16.48,9.67,1.19-2.07,16.87a4.52,4.52,0,0,0,1,3.71,6.79,6.79,0,0,0,7.84,1,4.54,4.54,0,0,0,1.85-3.38l2.07-16.87Zm21.58,3.61,9.24,3.09L602,177l10.11,3.38,3.09-9.23,9.28,3.11-8.85,26.43-9.27-3.1L610,186.9l-10.12-3.38-3.58,10.7L587,191.13l8.84-26.43ZM641,208l-9.86-5-3.49,3.38-8.88-4.49L642,182.39l9.52,4.81-2,30.21-9.11-4.61L641,208Zm.88-6.31,1.45-10.5-7.61,7.38Zm27.23-4.13,10.09,8-6.67,16.34L686.9,211.6,697,219.53,679.67,241.4l-6.26-4.94,13.17-16.67-18,12.86-5.67-4.48,8.35-20.48-13.17,16.67-6.26-4.94,17.28-21.87Zm37.28,30.81,7.93,10.13L704,252.8l16.38-6.58,7.89,10.08-22,17.17-4.91-6.28,16.73-13.09-20.53,8.24-4.45-5.69,13-17.93-16.73,13.1-4.92-6.28,21.95-17.18Zm16.93,64.88-5.56-9.55-4.77.94-5-8.6,30.06-3.75,5.37,9.22-18.15,24.24-5.13-8.82Zm4.17-4.82,6.93-8-10.4,2ZM752,300l4.76,13.69a19.3,19.3,0,0,1,1.3,6.87,11.42,11.42,0,0,1-1.34,5.09,11.84,11.84,0,0,1-3.41,3.82,18.17,18.17,0,0,1-4.84,2.5,16.67,16.67,0,0,1-6.93,1.19,11.46,11.46,0,0,1-4.94-1.66,10.85,10.85,0,0,1-3.54-3.42,25.4,25.4,0,0,1-2.63-5.24l-4.76-13.68L752,300Zm-2.76,11.27-14.37,5,.78,2.26a11.24,11.24,0,0,0,2,3.92,4.31,4.31,0,0,0,2.64,1.23,11.64,11.64,0,0,0,4.81-.89q4.18-1.46,5.19-3.54t-.25-5.68Zm14.19,25.8,1.76,9.63-27.41,5-1.77-9.62,27.42-5Zm3.32,16.2.83,10.79-8.86,7.09,9.84,5.61.82,10.74-17.09-11-11.64.9-.75-9.76,11.64-.89,15.21-13.5Zm-22.53,55.09.84-11-4.46-1.93.76-9.93,26.89,14-.81,10.64-28.7,9.67.78-10.18Zm6.17-1.6,10.26-2.67L751,399.9l-.53,6.88ZM765,430.54l-2.65,9.37L753,437.26l-2.9,10.27,9.37,2.64-2.66,9.42L730,452l2.66-9.42,10.86,3.07,2.9-10.26-10.86-3.07L738.2,423Z"/><path class="cls-12" d="M408.13,538.66l6.71,5.38-6.59,8.22,13.63-2.57,8.94,7.16-14.49,1.81-2.59,20.23-8.26-6.63,2.57-12.6-6.4.83-4.25,5.3-6.71-5.38Zm48.38,30.89,7.7,3.84-7.42,14.86a14.08,14.08,0,0,1-2.77,3.82,10.28,10.28,0,0,1-3.88,2.36A9.63,9.63,0,0,1,446,595a17.25,17.25,0,0,1-5.81-1.86,36.57,36.57,0,0,1-3.84-2.24,11.59,11.59,0,0,1-3.1-2.8,10.21,10.21,0,0,1-1.57-3.47,8.86,8.86,0,0,1-.2-3.69,16,16,0,0,1,1.39-4.57l7.41-14.86,7.7,3.84-7.59,15.21a4.91,4.91,0,0,0-.47,3.75,4.75,4.75,0,0,0,2.56,2.71,4.69,4.69,0,0,0,3.68.42,4.82,4.82,0,0,0,2.72-2.63l7.6-15.21Zm20,8.11,7.78,2,6.23,17.53,3.88-14.9,7.88,2.06-7,27-7.87-2.05-6.2-17.44-3.86,14.82-7.84-2,7-27Zm39.74,8.54,8.62.66-2.11,27.79-8.62-.66,2.11-27.79Zm23.61,1.87,8-.61L559.45,602l-1.17-15.34,8.11-.62,2.12,27.79-8.12.62L548.87,600,550,615.25l-8.08.61-2.11-27.79Zm58,9.74-1.61-5.58,12.8-3.68,3.28,11.39a27.61,27.61,0,0,1-5.51,5.29,23.35,23.35,0,0,1-6.44,2.83,17,17,0,0,1-8.24.61,11.52,11.52,0,0,1-6.05-3.5,16.55,16.55,0,0,1-3.78-6.9,16.09,16.09,0,0,1-.38-8.15,12.14,12.14,0,0,1,3.88-6.44,17.79,17.79,0,0,1,7-3.4,21.49,21.49,0,0,1,6.86-1.11,8.94,8.94,0,0,1,4.38,1.44,11.52,11.52,0,0,1,3.41,3.66L599.79,588a4.45,4.45,0,0,0-2.34-1.85,5.36,5.36,0,0,0-3.24.05,5.67,5.67,0,0,0-3.79,3.14q-1.06,2.35.11,6.44c.83,2.89,2,4.81,3.42,5.73a6,6,0,0,0,5.09.56,9.25,9.25,0,0,0,2.53-1.16,15.76,15.76,0,0,0,2.49-2.19l-.73-2.51-5.53,1.6Zm45.89-12L635,590.17l.8,4.74-7.87,3.92-3.06-29.62,8.43-4.21,21.8,20.27-8.07,4Zm-4.33-4.58-7.19-7.61L633.91,584l5.45-2.72Zm12.29-26.29,6.38-4.89,17.66,5.86-9.36-12.21,6.46-5,17,22.12-6.46,5L665.72,560,675,572.14l-6.43,4.93-17-22.13Z"/></svg>