<svg id="Layer_1" data-name="Layer 1" xmlns="http://www.w3.org/2000/svg" xmlns:xlink="http://www.w3.org/1999/xlink" viewBox="0 0 1026 254"><defs><style>.cls-1{fill:#233435;}.cls-2,.cls-8{fill:#ffbe00;}.cls-3{fill:url(#linear-gradient);}.cls-4{fill:url(#linear-gradient-2);}.cls-5{fill:url(#linear-gradient-3);}.cls-6,.cls-7{fill:#093385;}.cls-6{stroke:#332c2b;stroke-miterlimit:10;stroke-width:0.23px;}.cls-10,.cls-11,.cls-6,.cls-7,.cls-8{fill-rule:evenodd;}.cls-9{fill:none;}.cls-10{fill:#0c9246;}.cls-11,.cls-12{fill:#fefefe;}</style><linearGradient id="linear-gradient" x1="374.87" y1="212.58" x2="501.07" y2="86.38" gradientUnits="userSpaceOnUse"><stop offset="0" stop-color="#06243e"/><stop offset="0.5" stop-color="#093385"/><stop offset="1" stop-color="#ffbe00"/></linearGradient><linearGradient id="linear-gradient-2" x1="313.41" y1="151.12" x2="439.61" y2="24.92" xlink:href="#linear-gradient"/><linearGradient id="linear-gradient-3" x1="338.14" y1="175.85" x2="464.34" y2="49.65" xlink:href="#linear-gradient"/></defs><path class="cls-1" d="M576.77,118.48c5.37-6,10-10,17.35-10.51s13.56,3.06,10.63,11.12c-1.22-2.2-7.33-2.2-12.71,3.91l-12.95,14.3,29.81,32.26H589.6l-26.15-28.47v28.47H547.93V96.49c0-7.82,6.11-12.59,15.52-12.47v49.25Z"/><path class="cls-1" d="M627.3,136.69c0,5.86-.24,13.81,5.13,17.59a12.68,12.68,0,0,0,13.44,0c5.5-3.66,5-11.24,5-17.1V119c-.12-8.67,6.36-13.07,15.77-12.83V133c.12,11-.86,18.45-2.57,22.61-4.64,10.87-13.69,15.27-25.17,15.27-12.46,0-21.87-5.25-25.78-17.47-1.1-3.67-1.84-10.63-1.84-18.21V106.39h16Z"/><path class="cls-1" d="M705.76,104.67a22.32,22.32,0,0,1,17.47,6.6q5.5,5.69,5.5,16.5v41.79H713.09c0-8.19.61-36.66-1-42.52a9.88,9.88,0,0,0-9.65-7.83c-5.5,0-8.8,3.3-8.8,8.19-1.95-.61-4.15-2.93-5.13-5.25v47.41H672.77v-63.3h15.76v7.33C691.22,107.85,699.89,105,705.76,104.67Z"/><path class="cls-2" d="M750.33,81.43a9.52,9.52,0,0,1,3.06,7.21A10.14,10.14,0,0,1,750.45,96c-4.4,4.4-13.19,2.81-15.27,8.31-1.47-5.13-4.52-17.6.86-23a9.81,9.81,0,0,1,7.2-2.93A9.25,9.25,0,0,1,750.33,81.43Z"/><path class="cls-1" d="M751.07,106.26v63.3H735.3V119.09C735.91,109.2,742.39,106.39,751.07,106.26Z"/><path class="cls-1" d="M792.49,104.67a22.32,22.32,0,0,1,17.47,6.6q5.5,5.69,5.5,16.5v41.79H799.82c0-8.19.61-36.66-1-42.52a9.88,9.88,0,0,0-9.65-7.83c-5.5,0-8.8,3.3-8.8,8.19-1.95-.61-4.15-2.93-5.13-5.25v47.41H759.5v-63.3h15.76v7.33C778,107.85,786.62,105,792.49,104.67Z"/><path class="cls-1" d="M827.56,169.68c5.25,5.86,17.35,10,25.41,9.77,15-.61,18.21-9,18.21-18.2-18.45,18.33-49.61,5.74-49.61-24.81,0-19.67,14.91-32.38,30.92-31.77,15.64.62,18.2,14.42,15.27,19.8-2.81-4-8.68-5.26-13.2-5.26-22.6,0-23.09,35.93,0,35.93,13,0,16.62-11.49,16.62-22.85v-26h15.89v56.21c0,19.31-11.12,31.65-32.38,31.65C838.56,194.12,822.67,186.54,827.56,169.68Z"/><path class="cls-1" d="M942.79,162.59c-18.45,18.33-49.61,5.87-49.61-24.8,0-19.67,14.91-33.73,30.91-33.12,15.64.62,18.21,14.54,15.28,19.8-2.69-4-8.56-5.13-13.2-5.13-22.61,0-23.09,37.26,0,37.26,13,0,16.62-12.95,16.62-24.31v-26h15.88v63.3H942.79Z"/><path class="cls-1" d="M997.77,104.67a22.33,22.33,0,0,1,17.48,6.6q5.49,5.69,5.5,16.5v41.79h-15.64c0-8.19.61-36.66-1-42.52-1.35-5.14-5.38-7.83-9.65-7.83-5.5,0-8.8,3.3-8.8,8.19-2-.61-4.16-2.93-5.13-5.25v47.41H964.78v-63.3h15.77v7.33C983.23,107.85,991.91,105,997.77,104.67Z"/><path class="cls-3" d="M507.94,109.43v-.29a23.14,23.14,0,0,0-2.4-9.38,23.41,23.41,0,0,0-4.69-7.1,27.93,27.93,0,0,0-10.24-6.75,29.48,29.48,0,0,0-12.82-1.79A39.43,39.43,0,0,0,465,87.26a20.36,20.36,0,0,0-8.39,6.26,10.64,10.64,0,0,0-1.33,2.21,16.71,16.71,0,0,0-.88,4.86,17.51,17.51,0,0,0,.15,3.24,23.5,23.5,0,0,0-1.14-3.24c-.12-.27-.25-.56-.39-.83a23.41,23.41,0,0,0-4.69-7.1A27.93,27.93,0,0,0,438,85.91a29.42,29.42,0,0,0-12.81-1.79,39.31,39.31,0,0,0-12.84,3.14c-4.28,1.89-8,4.67-9.73,8.47a18.05,18.05,0,0,0-.07,11l.07.22c1.13,3.07,4,6.14,6.61,6.92,0-6.43,4.37-10.77,11.78-10.77,5.62,0,10.8,3.53,12.57,10.31.59,2.16.93,6.63,1.16,12.2v.15c.34,8.93.29,20.62.22,30.05a0,0,0,0,0,0,.07c1.3,8.79,8.59,13.43,18.88,13.63h1.67V114.42a44.69,44.69,0,0,0-.18-5v-.29a21.41,21.41,0,0,0-.28-2.66c0,.1,0,.2.07.3l.07.22a10.74,10.74,0,0,0,1.13,2.21,1.37,1.37,0,0,0,.2.29,11,11,0,0,0,5.28,4.42c0-6.43,4.37-10.77,11.78-10.77,5.62,0,10.8,3.53,12.57,10.31.59,2.16.93,6.63,1.15,12.2v.15c.35,8.93.3,20.62.22,30.05a0,0,0,0,0,0,.07c1.31,8.79,8.6,13.43,18.88,13.63h1.67V114.42A47.3,47.3,0,0,0,507.94,109.43Z"/><path class="cls-4" d="M369.83,143.94c-1.13-3.07-4-6.14-6.6-6.95,0,6.46-4.35,10.8-11.76,10.8-5.65,0-10.81-3.53-12.57-10.31a62.52,62.52,0,0,1-1.11-10.95c-.34-7.9-.37-18.39-.32-27.54-1.52-8.45-8.74-12.89-18.8-13.09H317v50.63c0,1.76,0,3.38.15,5l0,.29a22.83,22.83,0,0,0,2.41,9.38,23.33,23.33,0,0,0,4.66,7.1,28,28,0,0,0,13.58,7.78,29.1,29.1,0,0,0,9.48.76,39.48,39.48,0,0,0,12.86-3.14c4.27-1.89,8-4.69,9.7-8.47a18.05,18.05,0,0,0,.07-11.05Z"/><path class="cls-5" d="M375.87,85.9v35.46c0,.86,0,1.69,0,2.53v45.66h20.82V133.21c-.05-2.21,0-4.37,0-6.38v-24C396.81,91.38,388.27,85.59,375.87,85.9Z"/><path class="cls-6" d="M252,75.89,200.93,54.72,179.76,3.61,128.65,24.78,77.53,3.61,56.36,54.72,5.25,75.89,26.42,127,5.25,178.11l51.11,21.17,21.17,51.11,51.12-21.17,51.11,21.17,21.17-51.11L252,178.11,230.87,127ZM136.58,124.62l-1.46.66-.09-.42.76-1,.57.29Z"/><path class="cls-7" d="M235.4,82.78,191.18,64.46,172.87,20.24,128.65,38.56,84.43,20.24,66.11,64.46,21.89,82.78,40.21,127,21.89,171.22l44.22,18.32,18.32,44.22,44.22-18.32,44.22,18.32,18.31-44.22,44.22-18.32L217.09,127Z"/><path class="cls-2" d="M173.84,236.11l-45.19-18.72-45.2,18.72L64.73,190.92,19.53,172.2,38.26,127,19.53,81.8l45.2-18.72L83.45,17.89l45.2,18.72,45.19-18.72,18.72,45.19,45.2,18.72L219,127l18.72,45.2-45.2,18.72ZM24.25,170.25l43.24,17.91L85.4,231.4l43.25-17.91,43.24,17.91,17.91-43.24,43.25-17.91L215.14,127l17.91-43.25L189.8,65.84,171.89,22.6,128.65,40.51,85.4,22.6,67.49,65.84,24.25,83.75,42.16,127Z"/><path class="cls-8" d="M105.22,75.17l.2.17S105.14,75.22,105.22,75.17Z"/><path class="cls-8" d="M88.64,87.94c0-1.72.94,0,.37,0H89C88.35,88,88.64,89.16,88.64,87.94Z"/><path class="cls-8" d="M83.11,151.72c.84-.94.45.53.17.21l0-.06s-.16-.1-.12-.15Z"/><path class="cls-8" d="M91.81,162.24s.16,0,.16.11.07.05.07.05-1.12.52-.23-.16Z"/><path class="cls-8" d="M117.12,131.63l1-.42a1.86,1.86,0,0,0,.14.37l.18.34-.94.47A6.81,6.81,0,0,1,117.12,131.63Z"/><path class="cls-8" d="M98.23,142.12l2.58-3.56,8.19-3.51c.1.22.22.45.31.69s.23.44.31.63Z"/><path class="cls-8" d="M118.13,133.57l.9-.61a2.56,2.56,0,0,0,.47.66l-.86.62-.26-.31-.25-.36Z"/><path class="cls-8" d="M104.45,144.86l-4.36.49,10.68-7c.18.29.47.68.86,1.18Z"/><path class="cls-8" d="M140.34,121.71l-1,.42a5.06,5.06,0,0,0-.32-.71l1-.47c.12.26.25.5.38.76Z"/><path class="cls-8" d="M156.62,114.78l-8.22,3.51c-.22-.5-.42-1-.61-1.32l11.44-5.8Z"/><path class="cls-8" d="M116.7,130.59l1-.34a3.9,3.9,0,0,0,.24.71l-1,.42a3.18,3.18,0,0,1-.18-.37,2.58,2.58,0,0,1-.11-.42Z"/><path class="cls-8" d="M102.46,137.23l1.57-2.51,4.31-1.42c.1.24.19.48.26.71s.18.44.28.66Z"/><path class="cls-8" d="M118.79,134.43l.86-.62a1.46,1.46,0,0,0,.21.28,3.4,3.4,0,0,0,.26.29l-.81.71a2,2,0,0,1-.52-.66Z"/><path class="cls-8" d="M109.39,144l3.42-3.05a4.36,4.36,0,0,1-.5-.56c-.15-.2-.29-.38-.45-.57l-5.41,4.28,2.94-.1Z"/><path class="cls-8" d="M140.71,122.75l-1,.34a1.75,1.75,0,0,1-.16-.36,3.7,3.7,0,0,1-.13-.4l1-.39a4,4,0,0,0,.12.44,3,3,0,0,0,.16.37Z"/><path class="cls-8" d="M155,116.11l-6.35,2.56c.13.29.27.74.47,1.37l4.37-1.47,1.51-2.46Z"/><path class="cls-8" d="M138.67,118.86l-.85.67a3.94,3.94,0,0,0-.53-.57l.81-.71c.1.09.19.19.29.3S138.59,118.76,138.67,118.86Z"/><path class="cls-8" d="M151,109.22l-5.41,4.23c-.21-.29-.52-.65-.89-1.08l3.42-3.1Z"/><path class="cls-8" d="M139.87,120.71l-1,.52c-.1-.21-.23-.44-.37-.67l.89-.56.19.38a1.37,1.37,0,0,0,.25.33Z"/><path class="cls-8" d="M162,108.9l-14.44,7.68a8.65,8.65,0,0,1-.71-1.23l13.87-8.64,3.55-.57Z"/><path class="cls-8" d="M117.61,132.63a5.6,5.6,0,0,0,.37.71l1-.58a1.1,1.1,0,0,1-.25-.31,2.76,2.76,0,0,1-.19-.35Z"/><path class="cls-8" d="M96.73,146.63l-3.57.57,2.27-2.81,14.38-7.63a12.48,12.48,0,0,0,.77,1.23l-13.85,8.64Z"/><path class="cls-8" d="M134.46,115.39l-.54,1-.66-.34.43-.94c.41.18.67.29.77.32Z"/><path class="cls-8" d="M140.63,98.74l3.55-2.56-5.79,11.39c-.57-.29-1-.5-1.28-.62l3.52-8.21Z"/><path class="cls-8" d="M121.15,136.76l.62-.86a3.56,3.56,0,0,0,.31.26l.32.21-.58.86a4.71,4.71,0,0,1-.67-.47Z"/><path class="cls-8" d="M110.06,155.31l.42-4.4,5.36-7.13a10.62,10.62,0,0,0,1.18.81l-7,10.72Z"/><path class="cls-8" d="M123,138l.47-1a5.37,5.37,0,0,1,.71.34l-.42.94a1.7,1.7,0,0,1-.41-.15A1.43,1.43,0,0,1,123,138Z"/><path class="cls-8" d="M116.85,154.6l-3.62,2.56,5.8-11.39c.57.26,1,.44,1.33.57l-3.51,8.26Z"/><path class="cls-8" d="M136.3,116.58l-.66.86A7.74,7.74,0,0,0,135,117l.57-.86a7.89,7.89,0,0,1,.71.47Z"/><path class="cls-8" d="M146.93,102.39,147.4,98l-7,10.67c.28.2.68.47,1.19.86l5.36-7.17Z"/><path class="cls-8" d="M120.31,136.05l.72-.76a1.66,1.66,0,0,0,.27.26l.29.21-.66.86c-.1-.1-.2-.2-.31-.29l-.31-.28Z"/><path class="cls-8" d="M111.29,149l0-2.94,3.08-3.42.55.47a3.32,3.32,0,0,0,.55.44Z"/><path class="cls-8" d="M124,138.37l.38-1,.75.27-.32,1-.81-.29Z"/><path class="cls-8" d="M120.64,151.37l-2.47,1.53,2.56-6.37a10.37,10.37,0,0,0,1.33.47Z"/><path class="cls-8" d="M137.16,117.29l-.71.76a3.22,3.22,0,0,1-.62-.47l.67-.86a2.76,2.76,0,0,0,.3.29l.36.28Z"/><path class="cls-8" d="M146.17,104.38l-4.26,5.41a4.28,4.28,0,0,0,.56.5c.2.15.38.29.57.46l3-3.42Z"/><path class="cls-8" d="M133.45,115l-.42.94a6.14,6.14,0,0,0-.71-.22l.32-1.06A5.48,5.48,0,0,1,133.45,115Z"/><path class="cls-8" d="M139.3,100.39l-2.58,6.42c-.24-.1-.48-.18-.71-.26s-.44-.16-.66-.26l1.42-4.33,2.53-1.57Z"/><path class="cls-8" d="M135.39,116l-.56.91a3.58,3.58,0,0,0-.67-.37l.47-1a3.17,3.17,0,0,1,.76.42Z"/><path class="cls-8" d="M148.69,94.66,140,108.51c-.21-.11-.42-.24-.63-.37l-.6-.39,7.65-14.37,2.8-2.29-.57,3.57Z"/><path class="cls-8" d="M119.5,135.29l.76-.71a5.93,5.93,0,0,0,.57.51l-.71.81-.62-.61Z"/><path class="cls-8" d="M112,144.59l0-1.09-1.08-.1,2.27-2.13c.22.24.56.6,1,1L112,144.59Z"/><path class="cls-8" d="M138,118.05l-.79.71-.53-.51.71-.81.61.61Z"/><path class="cls-8" d="M146.65,109.89,144.37,112c-.44-.43-.79-.77-1-1l2.13-2.29.09,1.09,1.1,0Z"/><path class="cls-8" d="M122.06,137.38l.57-.91a1.33,1.33,0,0,0,.66.37l-.52,1-.37-.2a1.66,1.66,0,0,1-.34-.22Z"/><path class="cls-8" d="M111,160l-2.74,2.29.57-3.57,8.63-13.85a9.77,9.77,0,0,0,1.23.7L111,160Z"/><path class="cls-8" d="M128,114.07l.05,1.05a3,3,0,0,0-.41,0h-.35l-.15-1a6.39,6.39,0,0,1,.86,0Z"/><path class="cls-8" d="M125.06,96.55l1.85-4,.66,12.77c-.32,0-.79,0-1.43.09l-1.08-8.83Z"/><path class="cls-8" d="M127.18,139.22l.15-1.1a1.06,1.06,0,0,0,.35.08,3,3,0,0,0,.41,0l-.05,1.05a3.19,3.19,0,0,1-.45,0,2.82,2.82,0,0,0-.41,0Z"/><path class="cls-8" d="M126.91,160.82l-1.85-4,1.08-8.88a6.93,6.93,0,0,0,1.43.14l-.66,12.77Z"/><path class="cls-8" d="M129.37,139.27l-.05-1.05a3,3,0,0,0,.81-.1l.1,1.1a2.56,2.56,0,0,0-.42,0,2.94,2.94,0,0,1-.44,0Z"/><path class="cls-8" d="M132.37,156.79l-1.82,4-.66-12.77a6.77,6.77,0,0,0,1.42-.14Z"/><path class="cls-8" d="M130.23,114.11l-.1,1h-.42a2.55,2.55,0,0,0-.39,0l.05-1.05a6.2,6.2,0,0,1,.86,0Z"/><path class="cls-8" d="M132.37,96.55l-1.06,8.83c-.63-.06-1.1-.09-1.42-.09l.66-12.77,1.82,4Z"/><path class="cls-8" d="M126.1,139l.24-1a2,2,0,0,0,.36.1,2.69,2.69,0,0,0,.4,0l-.15,1.06a2.22,2.22,0,0,1-.45-.05l-.4-.1Z"/><path class="cls-8" d="M124.77,154.7l-1.43-2.61,1-4.47a14.32,14.32,0,0,0,1.42.24Z"/><path class="cls-8" d="M130.52,139.18l-.2-1.06a2.43,2.43,0,0,0,.38,0l.43-.1.18,1c-.37.07-.65.11-.79.15Z"/><path class="cls-8" d="M134.07,152.09l-1.38,2.61-.94-6.84a7.35,7.35,0,0,0,1.38-.24l.94,4.47Z"/><path class="cls-8" d="M131.31,114.31l-.18,1a1.88,1.88,0,0,1-.43,0l-.38-.1.2-1c.14,0,.42.08.79.15Z"/><path class="cls-8" d="M132.69,98.64l1.38,2.56-.94,4.51c-.67-.12-1.14-.2-1.38-.23l.94-6.84Z"/><path class="cls-8" d="M127,114.16l.15,1-.4.1a1.91,1.91,0,0,1-.36,0l-.24-1a1.9,1.9,0,0,0,.4,0l.45-.1Z"/><path class="cls-8" d="M124.77,98.64l1,6.84c-.32,0-.79.11-1.42.23l-1-4.51Z"/><path class="cls-8" d="M129.14,114l0,1.1h-.76l-.05-1.1h.86Z"/><path class="cls-8" d="M130,89l-.56,16.28H128L127.47,89l1.23-3.37Z"/><path class="cls-8" d="M125.06,138.76l.32-1,.34.11a1,1,0,0,0,.38.09l-.25,1C125,138.71,124.74,138.63,125.06,138.76Z"/><path class="cls-8" d="M123.15,150.57l-.57-1-1,.53.89-3c.7.22,1.17.35,1.38.39l-.71,3Z"/><path class="cls-8" d="M132.41,114.58l-.34,1a1,1,0,0,1-.37-.08c-.13,0-.26-.08-.39-.12l.29-1C131.77,114.39,132,114.47,132.41,114.58Z"/><path class="cls-8" d="M135.88,103.2l-.91,3c-.63-.19-1.1-.32-1.42-.39l.71-3,.62.91,1-.48Z"/><path class="cls-8" d="M128.28,139.27l.05-1.05h.76l0,1.05a.82.82,0,0,0-.24,0,.69.69,0,0,1-.2,0,.65.65,0,0,1-.22,0A.68.68,0,0,0,128.28,139.27Z"/><path class="cls-8" d="M130,164.38l-1.28,3.37-1.23-3.37.52-16.33a5.14,5.14,0,0,0,1.43,0l.56,16.33Z"/><path class="cls-8" d="M121.82,116.11l.58.86a5.57,5.57,0,0,0-.63.47l-.62-.86a4.71,4.71,0,0,1,.67-.47Z"/><path class="cls-8" d="M110.48,102.39,110.06,98l7,10.67a4.51,4.51,0,0,1-.58.46l-.6.4-5.36-7.17Z"/><path class="cls-8" d="M133.69,138.27l-.43-.94.66-.34.54,1a3.89,3.89,0,0,1-.41.17,2.83,2.83,0,0,1-.36.15Z"/><path class="cls-8" d="M144.18,157.16l-5.79-11.39-1.28.57,3.52,8.26Z"/><path class="cls-8" d="M135.59,137.23l-.57-.86a7,7,0,0,1,.62-.47l.66.86A7.89,7.89,0,0,1,135.59,137.23Z"/><path class="cls-8" d="M146.93,150.91l.47,4.4-7-10.72a11.07,11.07,0,0,0,1.19-.81l5.36,7.13Z"/><path class="cls-8" d="M123.78,115.07l.42.94-.39.19a1.3,1.3,0,0,1-.32.15l-.47-1,.76-.32Z"/><path class="cls-8" d="M116.85,98.74l3.51,8.21a6.85,6.85,0,0,0-.71.31c-.23.12-.44.21-.62.31l-5.8-11.39,3.62,2.56Z"/><path class="cls-8" d="M132.64,138.66l-.32-1c.47-.19.71-.27.71-.27l.42,1c-.06,0-.32.13-.81.29Z"/><path class="cls-8" d="M139.3,152.9l-2.58-6.37a5.8,5.8,0,0,1-1.37.47l1.42,4.37,2.53,1.53Z"/><path class="cls-8" d="M136.5,136.62l-.67-.86a3.22,3.22,0,0,1,.62-.47l.71.76a3.17,3.17,0,0,0-.36.28A2.76,2.76,0,0,0,136.5,136.62Z"/><path class="cls-8" d="M146.07,146l.1,2.93-4.26-5.44c.5-.39.87-.68,1.13-.91Z"/><path class="cls-8" d="M124.82,114.63l.32,1.06-.75.22L124,115A6,6,0,0,1,124.82,114.63Z"/><path class="cls-8" d="M118.17,100.39l2.47,1.57,1.42,4.33c-.22.1-.45.18-.68.26a4.89,4.89,0,0,0-.65.26l-2.56-6.42Z"/><path class="cls-8" d="M120.93,116.72l.66.86a2.35,2.35,0,0,1-.29.26l-.27.21-.72-.76a2.89,2.89,0,0,1,.31-.28c.11-.09.21-.19.31-.29Z"/><path class="cls-8" d="M111.29,104.38l0,3,3.08,3.42c.19-.17.37-.31.55-.46s.35-.31.55-.5Z"/><path class="cls-8" d="M122.77,115.54l.52,1a2,2,0,0,0-.66.37l-.57-.91a2.88,2.88,0,0,1,.71-.42Z"/><path class="cls-8" d="M111,93.38l7.69,14.37c-.56.32-1,.58-1.23.76l-8.63-13.85-.57-3.57Z"/><path class="cls-8" d="M131.6,139l-.29-1a1.1,1.1,0,0,0,.39-.09l.37-.11.34,1C131.56,139,131.28,139.11,131.6,139Z"/><path class="cls-8" d="M135.88,150.14l-1-.53-.62,1-.71-3c.32-.07.79-.2,1.42-.39l.91,3Z"/><path class="cls-8" d="M125.85,114.36l.25,1-.38.12a1,1,0,0,1-.34.08l-.32-1C125.33,114.49,125.61,114.42,125.85,114.36Z"/><path class="cls-8" d="M123.15,102.77l.71,3c-.21.07-.68.2-1.38.39l-.89-3,1,.48.57-.91Z"/><path class="cls-8" d="M134.63,137.8l-.47-1a2,2,0,0,0,.67-.37l.56.91C135.09,137.56,134.83,137.7,134.63,137.8Z"/><path class="cls-8" d="M148.69,158.68l.57,3.57-2.8-2.29-7.65-14.43a4,4,0,0,0,.6-.33c.21-.13.42-.26.63-.37Z"/><path class="cls-8" d="M117.46,121l.94.47a3.39,3.39,0,0,1-.18.39,2.08,2.08,0,0,0-.14.32l-1-.42a5.35,5.35,0,0,1,.34-.76Z"/><path class="cls-8" d="M100.81,114.78l-2.58-3.61,11.39,5.8a5.55,5.55,0,0,1-.31.66c-.09.23-.21.44-.31.66l-8.19-3.51Z"/><path class="cls-8" d="M138.81,134.24l-.86-.62c.07-.1.13-.19.2-.31a2.76,2.76,0,0,1,.24-.35l.91.61c-.1.13-.2.24-.28.36A3.37,3.37,0,0,1,138.81,134.24Z"/><path class="cls-8" d="M157.38,145.35l-10.73-7a10.67,10.67,0,0,1-.81,1.18l7.12,5.36Z"/><path class="cls-8" d="M140,132.39l-1-.47a5.06,5.06,0,0,0,.32-.71l1,.42C140.21,131.89,140.08,132.13,140,132.39Z"/><path class="cls-8" d="M156.62,138.56l2.61,3.56-11.44-5.75c.06-.16.27-.6.61-1.32Z"/><path class="cls-8" d="M118.64,119.1l.86.62s-.19.23-.47.62l-.9-.57C118.5,119.28,118.68,119.07,118.64,119.1Z"/><path class="cls-8" d="M104.45,108.41l7.18,5.38a4.28,4.28,0,0,0-.45.58l-.41.6-10.68-7,4.36.42Z"/><path class="cls-8" d="M138.1,135.09l-.81-.71a5.39,5.39,0,0,0,.53-.57l.85.62q-.37.47-.57.66Z"/><path class="cls-8" d="M151,144.12l-2.88-.1L144.66,141a5.82,5.82,0,0,1,.42-.56l.47-.57,5.41,4.28Z"/><path class="cls-8" d="M140.43,131.38c0-.11.07-.24.12-.37s.09-.27.16-.42l-1-.34c-.06.13-.11.26-.16.39s-.1.23-.13.32l1,.42Z"/><path class="cls-8" d="M153.44,134.72l1.51,2.51-6.35-2.56c.14-.42.31-.87.47-1.37Z"/><path class="cls-8" d="M119.31,118.25l.81.71-.26.27a2.73,2.73,0,0,0-.21.3l-.86-.67A5.06,5.06,0,0,1,119.31,118.25Z"/><path class="cls-8" d="M106.45,109.22l2.94,0,3.42,3.1c-.19.17-.35.37-.5.53l-.45.55Z"/><path class="cls-8" d="M117,121.94l1,.39a2.55,2.55,0,0,0-.24.76l-1-.34a2.59,2.59,0,0,1,.11-.37c0-.13.12-.28.18-.44Z"/><path class="cls-8" d="M102.46,116.11l1.57,2.46,4.31,1.47a5,5,0,0,0,.26-.68,7.1,7.1,0,0,1,.28-.69l-6.42-2.56Z"/><path class="cls-8" d="M118,120l1,.56c-.1.13-.25.36-.44.67l-.89-.52A5.6,5.6,0,0,1,118,120Z"/><path class="cls-8" d="M96.73,106.71l13.85,8.64a12.48,12.48,0,0,0-.77,1.23L95.43,108.9l-2.27-2.76,3.57.57Z"/><path class="cls-8" d="M137.34,135.9l-.71-.81c.35-.35.53-.51.53-.51l.79.71c-.08.1-.19.19-.3.31s-.21.21-.31.3Z"/><path class="cls-8" d="M146.65,143.4l-1.1.1-.09,1.09-2.13-2.29c.34-.3.68-.66,1-1l2.28,2.13Z"/><path class="cls-8" d="M120.12,117.44l.71.81a5.93,5.93,0,0,0-.57.51l-.76-.71A3,3,0,0,1,120.12,117.44Z"/><path class="cls-8" d="M112,108.75l2.14,2.29c-.19.17-.37.35-.52.51s-.32.31-.48.47l-2.27-2.13,1.08,0Z"/><path class="cls-8" d="M139.43,133.34l-.89-.58.37-.66,1,.53a1.85,1.85,0,0,0-.25.37,2.58,2.58,0,0,1-.19.34Z"/><path class="cls-8" d="M162,144.39l2.27,2.81-3.55-.57L146.88,138a8.65,8.65,0,0,1,.71-1.23Z"/><path class="cls-8" d="M139.3,119.77l-.91.57a1.36,1.36,0,0,1-.24-.31c-.07-.12-.13-.21-.2-.31l.86-.62a3.29,3.29,0,0,1,.49.67Z"/><path class="cls-8" d="M94.59,124.84l4-1.8,18.6,2.24a2.88,2.88,0,0,1,0,.42c0,.13,0,.24,0,.32l-22.58-1.18Z"/><path class="cls-8" d="M98.62,130.3l-4-1.8,22.58-1.23c0,.15,0,.29,0,.42a2.42,2.42,0,0,1,0,.37l-18.6,2.24Z"/><path class="cls-8" d="M158.85,130.3l-18.66-2.24c0-.11,0-.24,0-.37a3.67,3.67,0,0,1,.07-.42l22.6,1.23Z"/><path class="cls-8" d="M100.71,122.7l2.56-1.42,14.14,3c0,.2-.08.44-.14.76Z"/><path class="cls-8" d="M103.27,132.05l-2.56-1.41,16.56-2.33c.06.32.11.56.14.76l-14.14,3Z"/><path class="cls-8" d="M156.76,130.64l-2.61,1.41-14.11-3c0-.2.09-.44.15-.76l16.57,2.33Z"/><path class="cls-8" d="M156.76,122.7,140.19,125c-.06-.32-.11-.56-.15-.76l14.11-3Z"/><path class="cls-8" d="M166.39,127.93l-26.1-.9v-.77l26.1-.85,3.37,1.23-3.37,1.29Z"/><path class="cls-8" d="M104.84,121.1l.89-.57-.47-1,12.4,3.79c0,.13-.09.26-.13.39a.81.81,0,0,0-.07.32l-12.62-2.93Z"/><path class="cls-8" d="M152.19,133.81,139.77,130c-.07.16,0-.08.23-.75l12.63,2.93-.95.62.51,1Z"/><path class="cls-8" d="M105.21,133.81l.52-1-.89-.62,12.62-2.93a1.16,1.16,0,0,0,.07.42,2.27,2.27,0,0,0,.13.33l-12.45,3.8Z"/><path class="cls-8" d="M152.63,121.1,140,124a1.53,1.53,0,0,1-.13-.32c0-.13-.07-.26-.1-.39l12.42-3.79-.51,1,.95.57Z"/><path class="cls-8" d="M91,127.93l-3.37-1.29L91,125.41l26.15.85V127l-26.15.9Z"/><path class="cls-8" d="M158.85,123l4,1.8L140.29,126a1.18,1.18,0,0,1-.07-.32c0-.13,0-.28,0-.42Z"/><polygon class="cls-8" points="142.99 115.59 143.04 116.25 143.66 116.5 143.66 117.11 143.04 116.87 143.04 116.25 142.38 116.06 142.33 115.39 142.99 115.59"/><polygon class="cls-8" points="143.85 115.64 143.9 116.3 143.28 116.06 143.24 115.39 143.85 115.64"/><polygon class="cls-8" points="138.34 114.31 138.2 114.45 138.05 114.83 138.25 115.2 138.59 115.2 138.62 114.83 138.34 114.31"/><polygon class="cls-8" points="139.72 113.74 138.91 113.82 139.77 114.07 139.77 113.87 139.72 113.74"/><polygon class="cls-8" points="137.53 111.31 137.73 112.17 137.53 112.74 137.34 112.98 137.58 113.13 138.62 113.69 139.62 113.5 140.24 113.6 140.24 113.97 139.1 114.31 139.2 114.45 139.48 114.58 139.77 114.78 140.24 115.25 140.9 115.54 141.05 115.59 141 115.69 141.19 116.35 141.91 116.77 142.28 116.87 142.33 116.92 142.18 116.92 142 117.02 141.96 117.19 142.13 117.48 142.38 117.78 142.7 117.39 143.24 117.58 143.28 117.58 143.24 117.82 142.94 118.05 142.18 118.1 141.52 117.63 141.32 117.02 140.76 116.67 140.48 115.91 139.72 115.64 139.62 115.49 139.1 114.83 138.96 115.2 138.39 115.59 137.87 115.54 137.68 115.12 137.87 114.54 138.39 114.07 137.26 113.6 137.06 113.31 136.5 113.31 135.83 113.08 135.4 112.74 135.44 112.41 135.69 112.03 135.74 112.12 136.16 112.54 136.67 112.79 137.01 112.83 137.01 112.79 137.16 112.83 137.21 112.83 137.06 111.7 137.53 111.31"/><polygon class="cls-8" points="134.46 112.74 134.78 111.75 135.12 110.75 135.25 110.28 135.64 109.79 136.06 109.61 135.83 110.18 135.78 110.32 135.35 111.31 135.17 111.88 134.46 112.74"/><polygon class="cls-8" points="134.21 110.08 134.26 111.04 133.97 111.51 133.45 111.93 132.84 112.07 132.12 112.03 131.46 111.7 131.26 111.04 131.7 110.23 132.12 109.89 132.17 109.89 132.03 110.13 131.6 110.79 132.32 111.56 133.26 111.6 133.79 111.31 133.69 110.42 134.21 110.08"/><polygon class="cls-8" points="133.08 108.8 133.6 109.27 133.08 109.66 132.51 109.22 133.08 108.8"/><polygon class="cls-8" points="129.56 111.12 130.03 111.17 130.13 111.08 130.03 110.7 129.56 111.12"/><polygon class="cls-8" points="130.23 110.45 130.32 111.04 130.28 111.31 130.18 111.56 130.08 111.7 129.81 111.7 128.8 111.7 128.95 111.12 129.98 110.5 129.27 109.71 128.14 109.08 128.14 109.22 127.38 108.9 127.47 108.28 127.47 108.19 129.22 109.13 130.13 110.28 130.28 109.79 130.28 108.9 130.23 108.28 130.55 107.94 130.99 108.33 130.65 108.85 130.55 109.37 130.47 109.98 130.23 110.45"/><polygon class="cls-8" points="127 112.32 126.71 112.17 126.57 112.36 126.71 112.46 127 112.5 127.15 112.46 127.23 112.46 127.23 112.5 127.18 112.69 126.57 112.98 126.52 112.98 126.47 112.98 126.52 112.88 126.66 112.74 126.39 112.46 126.44 112.12 126.71 111.93 127.1 112.03 127 112.32"/><polygon class="cls-8" points="126.57 111.7 126.34 110.65 126.05 109.66 125.9 109.22 125.95 108.75 126.24 108.33 126.39 108.95 126.39 109.08 126.57 110.03 126.71 110.6 126.57 111.7"/><polygon class="cls-8" points="123.49 111.46 123.34 111.12 123.2 110.89 123.15 110.89 123.1 111.12 123.02 111.22 122.73 111.46 122.73 111.7 123.2 111.56 123.49 111.46"/><polygon class="cls-8" points="124.67 109.32 125.11 110.32 125.33 110.99 125.43 111.46 125.24 111.88 124.86 112.07 124.91 112.07 124.57 112.17 124.1 112.22 123.63 111.7 123.44 112.03 122.78 112.22 122.68 112.22 122.63 112.17 122.58 112.03 122.53 111.6 122.68 111.17 123.1 110.75 122.87 110.55 123.07 110.08 123.63 111.12 123.96 111.6 124.35 111.65 124.67 111.56 125.06 111.41 125.11 111.26 124.91 110.75 124.35 109.56 124.01 109.08 124.1 108.9 124.3 108.56 124.44 108.66 124.86 108.9 124.82 109.04 124.67 109.32"/><polygon class="cls-8" points="120.44 113.35 120.83 113.13 120.83 112.98 120.49 112.79 120.44 113.35"/><polygon class="cls-8" points="120.44 112.5 120.98 112.88 121.11 113.13 121.25 113.31 121.25 113.5 121.07 113.64 120.26 114.16 119.97 113.69 120.31 112.74 119.06 112.54 117.74 112.83 117.83 112.93 116.99 113.16 116.55 112.74 116.5 112.64 118.59 112.22 120.22 112.46 119.97 112.03 119.21 111.46 118.69 111.08 118.69 110.6 119.36 110.6 119.5 111.17 119.88 111.6 120.26 112.07 120.44 112.5"/><polygon class="cls-8" points="122.31 112.98 121.69 112.17 120.98 111.36 120.64 110.99 120.44 110.45 120.54 110.03 120.93 110.55 121.03 110.7 121.64 111.51 122.01 112.03 122.31 112.98"/><polygon class="cls-8" points="114.56 118.91 114.9 118.54 115.13 117.91 114.56 117.82 114.66 118.2 114.56 118.91"/><polygon class="cls-8" points="115.23 114.49 116.23 114.83 117.07 115.25 117.7 115.86 117.56 116.45 117.12 116.67 116.65 116.72 116.6 117.63 116.18 117.95 115.32 117.95 115.37 118.05 115.47 118.57 115.23 119.06 114.95 119.38 114.71 119.48 114.42 119.1 114.24 118.62 114.51 117.78 114.24 117.82 113.9 117.44 114.66 117.58 115.52 117.68 116.04 117.29 116.28 116.58 115.89 116.4 114.76 116.11 114.37 115.59 115.03 115.73 115.79 116.01 116.65 116.25 117.07 116.01 117.22 115.64 117.12 115.59 116.28 115.15 115.47 115.02 115.23 114.49"/><polygon class="cls-8" points="113.7 114.63 114.04 114.73 114.29 114.97 114.19 115.3 113.95 115.49 113.85 115.83 113.62 116.01 113.33 116.01 113.04 115.73 113.18 115.73 113.62 115.64 113.53 115.35 113.43 115.15 113.53 115.15 113.57 115.2 113.62 115.25 113.9 115.15 113.9 114.83 113.8 114.83 113.7 114.63"/><polygon class="cls-8" points="118.59 115.44 117.7 114.92 116.75 114.41 116.28 114.16 115.94 113.74 115.84 113.26 116.41 113.64 116.55 113.74 117.46 114.31 117.98 114.63 118.59 115.44"/><polygon class="cls-8" points="142.18 119.43 143.09 118.91 144 118.29 144.42 118 144.99 117.91 145.55 118.15 144.99 118.44 144.84 118.49 143.9 118.96 143.33 119.28 142.18 119.43"/><polygon class="cls-8" points="141.1 137.09 141.62 136.94 141.57 136.47 142.09 136.28 142.13 136.79 141.62 136.94 141.66 137.46 141.15 137.6 141.1 137.09"/><polygon class="cls-8" points="140.81 136.47 141.32 136.32 141.37 136.79 140.85 136.94 140.81 136.47"/><polygon class="cls-8" points="140.24 140.97 140.38 141.12 140.71 141.27 141.1 141.12 141.19 140.8 140.81 140.75 140.24 140.97"/><polygon class="cls-8" points="139.91 139.74 139.91 140.46 140.19 139.74 140.04 139.69 139.91 139.74"/><polygon class="cls-8" points="137.44 140.8 138.15 140.97 138.59 141.31 138.72 141.54 138.96 141.41 139.72 140.65 139.67 139.79 139.77 139.27 140.14 139.37 140.38 140.31 140.53 140.21 140.66 140.03 140.9 139.74 141.32 139.27 141.32 139.32 141.52 138.71 141.52 138.61 141.62 138.61 142.23 138.32 142.43 137.65 142.43 137.38 142.43 137.33 142.47 137.43 142.62 137.56 142.8 137.51 143.04 137.28 143.14 136.99 142.7 136.89 142.67 136.42 142.85 136.37 143.14 136.47 143.51 137.04 143.33 137.75 142.8 138.09 142.67 138.66 141.96 139.03 141.71 139.74 141.57 139.84 140.9 140.31 141.24 140.46 141.52 140.97 141.32 141.49 140.85 141.64 140.34 141.41 140.04 140.93 139.25 141.83 138.86 141.88 138.62 142.35 138.05 142.84 137.58 143.02 137.29 142.84 137.21 142.45 137.26 142.5 137.82 142.35 138.25 142.03 138.49 141.78 138.44 141.74 138.54 141.69 138.54 141.64 137.53 141.31 137.44 140.8"/><polygon class="cls-8" points="136.92 143.73 136.45 142.92 135.93 142.13 135.74 141.74 135.59 141.27 135.69 140.88 135.93 141.36 136.01 141.49 136.5 142.3 136.72 142.79 136.92 143.73"/><polygon class="cls-8" points="135.02 142.25 135.64 142.84 135.74 143.31 135.64 143.92 135.22 144.34 134.59 144.73 133.89 144.78 133.45 144.3 133.5 143.5 133.65 143.02 133.69 143.02 133.65 143.26 133.6 143.97 134.55 144.25 135.3 143.78 135.49 143.31 134.93 142.69 135.02 142.25"/><polygon class="cls-8" points="133.74 141.83 134.26 141.93 134.12 142.5 133.6 142.3 133.74 141.83"/><polygon class="cls-8" points="144.74 134.01 144.32 134.09 144.13 134.33 144.27 134.67 144.61 134.33 144.74 134.01"/><polygon class="cls-8" points="145.23 134.09 145.08 134.58 144.37 134.95 143.85 134.58 143.71 134.06 144.18 133.67 145.08 133.72 146.12 134.67 146.12 136.13 145.79 136.57 145.37 136.89 145.79 135.61 145.7 134.62 145.37 134.14 145.23 134.09"/><polygon class="cls-8" points="131.7 143.26 132.32 142.97 132.22 142.74 131.98 142.64 131.65 143.06 131.7 143.26"/><polygon class="cls-8" points="128.14 145.35 128.19 145.11 128.04 144.73 127.81 144.64 127.62 144.91 128.14 145.35"/><polygon class="cls-8" points="125.72 143.31 126.1 143.97 126.14 144.54 126.14 144.86 126.61 144.91 127.28 144.91 127.94 144.12 128.33 144.34 128.48 144.86 128.43 145.25 129.27 145.25 129.98 145.11 130.79 144.78 129.94 144.44 129.56 144.59 129.51 144.68 130.13 143.97 130.18 143.97 130.28 143.87 130.84 143.58 131.51 143.31 131.46 142.92 131.7 142.4 132.07 142.08 132.79 143.02 132.07 143.53 131.75 143.58 131.93 144.02 131.65 143.63 131.13 143.83 130.65 144.07 130.79 144.17 131.41 144.39 132.17 144.39 132.07 144.96 130.84 145.3 130.03 145.62 128.85 145.82 128.33 145.45 128.04 145.62 127.76 145.77 127.62 145.67 127.23 145.35 126.91 145.49 126.57 145.49 126.05 145.06 126 145.15 125.53 145.4 124.82 145.3 124.35 145.06 124.25 144.73 124.39 144.34 124.44 144.44 124.96 144.78 125.48 144.83 125.8 144.83 125.9 144.73 125.43 143.73 125.72 143.31"/><polygon class="cls-8" points="123.58 142.69 123.86 143.83 123.25 144.86 122.01 144.86 121.69 144.64 121.3 144.25 121.2 144.17 121.5 144.25 122.63 144.49 123.34 144.34 123.63 144.02 123.25 143.06 123.58 142.69"/><polygon class="cls-8" points="117.98 141.46 117.98 141.07 117.88 140.8 117.56 140.88 117.7 141.27 117.98 141.46"/><polygon class="cls-8" points="117.78 141.93 117.41 141.69 117.27 140.93 117.74 140.5 118.22 140.46 118.45 140.97 118.27 141.69 119.03 141.88 119.16 141.88 119.11 141.98 119.5 142.5 120.17 142.64 120.49 142.59 120.44 142.64 120.31 142.79 120.36 142.97 120.64 143.16 120.93 143.21 120.93 142.79 121.35 142.64 121.4 142.64 121.45 142.87 121.4 143.16 120.93 143.58 120.22 143.5 119.83 143.06 119.26 142.97 118.79 142.35 118.03 142.16 117.98 142.13 117.07 142.69 115.7 142.35 115.37 141.93 115.18 141.46 116.33 142.16 117.22 142.3 117.74 142.08 117.78 141.93"/><polygon class="cls-8" points="118.37 138.32 118.4 138.88 118.32 138.93 117.93 139.18 117.32 140.03 116.89 140.7 116.33 141.17 115.57 141.17 114.76 140.6 114.46 138.98 115.13 138.66 115.57 138.61 115.57 138.66 115.42 138.71 114.9 138.93 114.71 139.45 115.13 140.16 115.89 140.75 116.33 140.83 116.5 140.7 117.02 139.94 117.66 139.08 117.83 138.56 118.37 138.32"/><polygon class="cls-8" points="112.52 134.06 112.62 134.43 112.96 134.95 113.38 134.62 112.99 134.48 112.52 134.06"/><polygon class="cls-8" points="115.89 136.08 115.27 136.71 114.61 137.28 113.8 137.6 113.28 137.28 113.18 136.84 113.33 136.47 112.47 136.05 112.37 135.56 112.86 135 112.72 135 112.25 134.75 111.95 134.33 111.91 134.01 112 133.81 112.42 133.86 112.91 134.01 113.43 134.58 113.57 134.43 114.04 134.38 113.53 134.75 112.96 135.29 113.04 135.81 113.62 136.23 113.9 136.08 114.76 135.42 115.32 135.29 114.32 136.13 113.75 136.66 113.85 137.04 114.19 137.28 114.29 137.23 114.95 136.71 115.37 136.13 115.89 136.08"/><polygon class="cls-8" points="114.04 138.46 114.8 137.85 115.57 137.18 115.89 136.84 116.36 136.66 116.8 136.66 116.33 136.99 116.23 137.09 115.47 137.75 115.03 138.12 114.04 138.46"/><polygon class="cls-8" points="116.28 135.04 116.04 135.24 115.74 135.34 115.52 135.19 115.47 135 115.23 134.85 115.23 134.67 115.37 134.53 115.79 134.43 115.7 134.48 115.52 134.75 115.79 134.8 115.99 134.75 115.94 134.8 115.89 134.8 115.84 134.85 115.74 135.04 115.99 135.14 116.08 135.09 116.28 135.04"/><polygon class="cls-8" points="138.76 109.84 138.91 109.71 138.91 109.56 138.72 109.56 138.67 109.76 138.76 109.84"/><polygon class="cls-8" points="138.49 110.03 138.39 109.84 138.59 109.47 138.96 109.42 139.2 109.51 139.1 109.79 138.72 110.08 137.92 110.18 137.39 109.79 137.39 109.56 137.44 109.37 137.73 109.79 138.1 110.03 138.44 110.03 138.49 110.03"/><polygon class="cls-8" points="112.1 114.31 112.15 114.31 113.23 114.92 113.28 114.97 112.96 114.97 112.2 114.63 111.81 114.36 111.86 114.31 112.1 114.31"/><polygon class="cls-8" points="133.26 108.04 133.45 107.84 133.45 107.72 133.18 107.57 133.13 107.84 133.26 108.04"/><polygon class="cls-8" points="132.93 108.23 132.74 107.94 132.98 107.47 133.5 107.47 133.89 107.67 133.79 108.04 133.22 108.33 133.08 108.33 133.03 108.19 132.93 108.23"/><polygon class="cls-8" points="144.18 114.97 144.47 115.02 144.61 114.88 144.56 114.63 144.27 114.73 144.18 114.97"/><polygon class="cls-8" points="143.85 114.73 144 114.45 144.52 114.36 144.79 114.83 144.84 115.2 144.52 115.39 143.95 115.07 143.85 114.97 144 114.83 143.85 114.73"/><polygon class="cls-8" points="112.99 117.48 112.81 117.29 112.67 117.29 112.62 117.48 112.86 117.53 112.99 117.48"/><polygon class="cls-8" points="113.14 117.73 112.96 117.82 112.62 117.63 112.52 117.24 112.62 117.02 112.91 117.11 113.18 117.48 113.28 118.29 112.91 118.81 112.67 118.81 112.47 118.76 112.91 118.49 113.14 118.1 113.14 117.78 113.14 117.73"/><polygon class="cls-8" points="146.88 117.68 147.03 117.95 147.03 118 146.41 117.78 145.55 117.06 145.32 116.63 145.41 116.63 146.83 117.53 146.88 117.58 146.88 117.68"/><polygon class="cls-8" points="137.16 108.8 137.39 109 137.44 109.08 136.77 109.08 135.69 108.8 135.3 108.46 135.4 108.46 137.06 108.75 137.11 108.75 137.16 108.8"/><polygon class="cls-8" points="131.31 107.05 131.6 107.18 131.65 107.23 130.99 107.42 129.85 107.42 129.42 107.23 129.51 107.18 131.18 107 131.22 107 131.31 107.05"/><polygon class="cls-8" points="127.94 112.83 128.23 112.93 128.28 112.93 127.76 113.31 126.61 113.6 126.19 113.55 126.24 113.5 127.81 112.83 127.84 112.83 127.94 112.83"/><polygon class="cls-8" points="124.72 107.18 125.06 107.18 125.14 107.18 124.67 107.67 123.68 108.23 123.2 108.33 123.25 108.23 124.62 107.23 124.67 107.18 124.72 107.18"/><polygon class="cls-8" points="122.44 108.14 122.78 108.04 122.82 108.04 122.48 108.61 121.64 109.37 121.2 109.56 121.2 109.47 122.35 108.19 122.4 108.14 122.44 108.14"/><polygon class="cls-8" points="122.97 113.03 123.25 112.93 123.29 112.93 123.07 113.5 122.35 114.41 121.92 114.63 121.92 114.54 122.87 113.13 122.87 113.08 122.97 113.03"/><polygon class="cls-8" points="118.69 109.47 119.03 109.37 119.06 109.37 118.84 109.98 118.08 110.84 117.7 111.08 117.7 110.99 118.59 109.56 118.64 109.51 118.69 109.47"/><polygon class="cls-8" points="142.28 111.83 142.52 112.12 142.52 112.17 141.86 112.07 140.81 111.65 140.48 111.31 140.58 111.31 142.18 111.78 142.23 111.83 142.28 111.83"/><polygon class="cls-8" points="142.18 132.15 142.38 131.92 142.43 131.87 142.52 132.49 142.38 133.62 142.13 134.06 142.09 133.96 142.13 132.29 142.13 132.19 142.18 132.15"/><polygon class="cls-8" points="117.36 133.96 117.32 134.01 116.23 134.62 116.18 134.62 116.36 134.33 117.02 133.81 117.46 133.67 117.46 133.72 117.36 133.96"/><polygon class="cls-8" points="141.05 133.76 141.24 133.52 141.29 133.47 141.37 134.14 141.24 135.29 141 135.66 140.95 135.56 141 133.91 141 133.86 141.05 133.76"/><polygon class="cls-8" points="140.24 136.23 140.09 136.05 139.91 136 139.77 136.23 140.04 136.32 140.24 136.23"/><polygon class="cls-8" points="140.34 136.62 140.04 136.71 139.62 136.47 139.72 135.95 139.91 135.61 140.29 135.71 140.53 136.32 140.53 136.42 140.34 136.47 140.34 136.62"/><polygon class="cls-8" points="138.81 136.99 139.1 136.84 139.15 136.79 139.01 137.46 138.44 138.46 138.05 138.75 138.05 138.66 138.72 137.13 138.76 137.04 138.81 136.99"/><polygon class="cls-8" points="137.21 139.79 137.16 139.6 137.06 139.5 136.92 139.65 137.06 139.79 137.21 139.79"/><polygon class="cls-8" points="137.21 140.13 137.01 140.08 136.77 139.74 136.92 139.42 137.16 139.22 137.34 139.45 137.34 139.99 137.01 140.7 136.4 140.88 136.21 140.8 136.06 140.65 136.59 140.65 137.01 140.41 137.21 140.16 137.21 140.13"/><polygon class="cls-8" points="135.69 139.55 135.96 139.45 136.06 139.45 135.74 140.03 134.88 140.8 134.46 140.97 134.5 140.88 135.59 139.6 135.64 139.55 135.69 139.55"/><polygon class="cls-8" points="133.35 140.97 133.4 140.7 133.26 140.55 133.03 140.65 133.18 140.88 133.35 140.97"/><polygon class="cls-8" points="133.22 141.31 132.93 141.22 132.79 140.75 133.18 140.36 133.55 140.26 133.79 140.6 133.55 141.22 133.45 141.31 133.31 141.22 133.22 141.31"/><polygon class="cls-8" points="132.17 141.27 132.17 141.02 132.12 140.93 131.93 140.97 132.03 141.17 132.17 141.27"/><polygon class="cls-8" points="132.03 141.49 131.85 141.41 131.8 141.02 132.07 140.75 132.37 140.7 132.41 140.97 132.22 141.46 131.6 141.93 130.94 141.88 130.84 141.74 130.75 141.49 131.26 141.74 131.7 141.74 131.98 141.54 132.03 141.49"/><polygon class="cls-8" points="130.23 141.88 130.55 141.93 130.6 141.93 130.08 142.35 129.04 142.79 128.56 142.79 128.61 142.69 130.13 141.88 130.18 141.88 130.23 141.88"/><polygon class="cls-8" points="128.48 142.92 128.61 143.26 128.51 143.53 128.19 143.68 127.89 143.58 127.57 143.68 127.28 143.58 127.15 143.36 127.23 142.92 127.28 143.02 127.57 143.41 127.81 143.16 127.89 142.97 127.89 143.02 127.89 143.06 127.94 143.16 128.14 143.36 128.43 143.21 128.38 143.11 128.48 142.92"/><polygon class="cls-8" points="128.38 141.74 128.61 141.78 128.61 141.83 128.23 142.03 127.38 142.16 127.05 142.13 127.15 142.08 128.28 141.74 128.33 141.74 128.38 141.74"/><polygon class="cls-8" points="126.29 141.83 126.61 141.93 126.66 141.98 126.05 142.25 124.91 142.45 124.48 142.3 124.53 142.25 126.19 141.83 126.24 141.83 126.29 141.83"/><polygon class="cls-8" points="124.39 141.27 124.72 141.46 124.72 141.49 124.1 141.69 122.97 141.69 122.53 141.49 122.63 141.46 124.3 141.27 124.35 141.27 124.39 141.27"/><polygon class="cls-8" points="121.77 141.12 121.97 140.97 122.01 140.88 121.82 140.8 121.74 140.97 121.77 141.12"/><polygon class="cls-8" points="121.5 141.22 121.45 141.02 121.69 140.7 122.06 140.7 122.31 140.83 122.16 141.12 121.74 141.31 120.93 141.27 120.49 140.8 120.49 140.6 120.59 140.36 120.78 140.88 121.11 141.17 121.45 141.27 121.5 141.22"/><polygon class="cls-8" points="118.89 139.37 119.16 139.37 119.31 139.22 119.16 138.93 118.94 139.13 118.89 139.37"/><polygon class="cls-8" points="118.55 139.22 118.64 138.88 119.06 138.75 119.45 139.08 119.6 139.5 119.26 139.69 118.64 139.5 118.55 139.45 118.64 139.27 118.55 139.22"/><polygon class="cls-8" points="118.64 137.65 118.84 137.56 118.89 137.43 118.74 137.33 118.64 137.51 118.64 137.65"/><polygon class="cls-8" points="118.37 137.75 118.37 137.56 118.59 137.28 118.98 137.28 119.21 137.43 119.03 137.7 118.55 137.85 117.74 137.75 117.36 137.23 117.41 137.04 117.51 136.79 117.7 137.33 117.98 137.65 118.32 137.75 118.37 137.75"/><polygon class="cls-8" points="114.61 133.81 114.85 133.81 114.95 133.72 114.8 133.57 114.66 133.67 114.61 133.81"/><polygon class="cls-8" points="114.32 133.76 114.37 133.57 114.76 133.43 115.08 133.62 115.18 133.81 114.95 134.01 114.46 133.96 113.8 133.52 113.65 132.91 113.75 132.71 113.95 132.58 113.85 133.1 114.04 133.52 114.24 133.76 114.32 133.76"/><polygon class="cls-8" points="123.73 130.3 123.02 129.63 123.63 128.87 124.35 129.54 123.73 130.3"/><polygon class="cls-8" points="124.72 129.34 125.33 128.55 126.05 129.26 125.38 130.06 124.72 129.34"/><polygon class="cls-8" points="122.21 124.17 121.54 123.51 122.16 122.7 122.82 123.41 122.21 124.17"/><polygon class="cls-8" points="123.2 123.23 123.81 122.43 124.53 123.14 123.91 123.9 123.2 123.23"/><polygon class="cls-8" points="134.97 132.24 135.49 131.97 135.64 131.97 135.69 131.97 135.02 133.34 135.25 133.96 135.96 134.19 136.4 134.09 136.77 133.72 136.06 133.86 135.44 133.67 135.17 133.05 135.49 132.39 136.4 131.97 136.45 131.63 136.06 131.68 135.64 131.58 135.49 131.58 135.12 131.72 134.97 132.15 134.97 132.24"/><polygon class="cls-8" points="137.92 121.28 137.92 121 137.82 120.85 137.63 120.95 137.78 121.19 137.92 121.28"/><polygon class="cls-8" points="137.82 121.61 137.63 121.52 137.49 121.05 137.73 120.66 138 120.53 138.15 120.85 138.05 121.47 137.44 122.28 136.72 122.38 136.54 122.18 136.4 121.94 137.01 122.08 137.49 121.99 137.82 121.71 137.82 121.61"/><polygon class="cls-8" points="125.77 121.47 132.17 119.06 133.65 118.54 135.12 118.25 135.88 118.49 134.02 119.1 133.55 119.23 130.42 120.38 128.56 121.05 125.77 121.47"/><polygon class="cls-8" points="125.01 118.49 128.38 117.34 129.14 117.11 129.94 117.02 130.42 117.19 129.42 117.48 129.17 117.58 127.57 118.1 126.57 118.39 125.01 118.49"/><polygon class="cls-8" points="131.31 121.52 133.79 120.66 134.31 120.48 134.93 120.43 135.3 120.56 134.59 120.81 134.41 120.85 133.18 121.23 132.46 121.42 131.31 121.52"/><polygon class="cls-8" points="123.39 134.62 125.85 133.81 126.44 133.62 127 133.57 127.38 133.72 126.66 133.91 126.47 133.96 125.24 134.33 124.53 134.58 123.39 134.62"/><polygon class="cls-8" points="127.67 137.18 128.28 135.09 128.38 134.62 128.66 134.14 128.95 134.01 128.75 134.58 128.7 134.75 128.38 135.76 128.19 136.37 127.67 137.18"/><polygon class="cls-8" points="131.41 123.8 131.18 123.7 130.99 123.51 130.79 122.89 131.04 121.81 131.09 122.09 131.51 122.89 131.97 122.23 132.17 121.81 132.17 122.28 132.51 122.7 132.98 122.23 132.98 121.99 133.13 121.47 133.26 122.33 133.08 123.14 132.51 123.51 132.03 123.36 131.41 123.8"/><path class="cls-8" d="M136.35,128.92l-4.3-.89,3.07-1.67.71.91-.48-1,.71-.24,1.72-1-.39-1.37-1.23-1-.94.76-.59,1.28.15.91a59.47,59.47,0,0,0-5.41,3l6,.84-5.74,2.8-.05,0-.71-5.73,2.33-2.85-2.43,2.23-.48-3.74-.82,1.49.32,2.53h-1.25l-1-1.58L123,126.73l-1.92.91-1.45-.19-.49-1.23.54-2,.17-.46-.05,0-.61,1.13-.52,2.14.57,2,1.52.19,1.8-.83,2.64-2.76.72,1.18.82.28,1.13-.2.54,3.18L124,132.53l-1.71.44-.85-.58-.38-2.95-.53,4L122,134l2.33-.53,4.22-2.84,1.2,3.64,1.7-.51-1.28-.72,6.62-3.44Zm-.52-4.89.57.29.23.47-1.46.66-.1-.42Z"/><polygon class="cls-8" points="144.66 136.42 143.8 136.05 142.85 135.71 142.47 135.51 142.09 135.19 141.91 134.75 142.43 135.04 142.57 135.09 143.41 135.47 143.95 135.71 144.66 136.42"/><path class="cls-8" d="M153,108.41l4.42-.42-10.73,7c-.29-.45-.56-.84-.81-1.18Z"/><path class="cls-9" d="M128.64,65.83A61.17,61.17,0,1,0,190.09,127,61.3,61.3,0,0,0,128.64,65.83Zm8,59-1.46.66-.1-.42.76-1,.57.29Z"/><path class="cls-8" d="M126.61,176.8l-.35,0a51.67,51.67,0,0,1-24.78-8.65c-.13-4.52-.08-6-2.32-9.16-1.66-2.35-3-4.86-5.83-5.86-.32,5.57,1,6.4,2.36,10.55l-4.87-4.15c.51-3.48,2.35-4.56,1-8.89-.75-2.32-2.49-5.33-3.88-6.44a18.9,18.9,0,0,0-.71,10.68c-.43-.73-2.57-3.55-2.87-4.56-.74-2.46,6.1-5.19-.79-17.16l-1,1.71c-.18.49-.44,1.47-.58,2a43.57,43.57,0,0,0-.74,4.5c-2.58-7.11-1.62-4.56.62-9,1.75-3.46,1.65-8.22,1.31-12.47a10.44,10.44,0,0,0-3.73,4.35L78,126l.08-4.61c3.13-1.79,3.76-.45,5.3-5a25,25,0,0,0,1.2-8.8c-2.6.38-3.4,2.73-5,4.22l1-4.27c3.51-.5,4.12-.76,5.87-2.89a15.69,15.69,0,0,0,3.31-6.31c-3.49.59-3.74,1.61-5.89,2.54a16.46,16.46,0,0,1,2.26-3.8c3.1.19,4.27,0,6.24-1.81,1.32-1.18,3.09-2.68,3.63-5.12-3.65.42-4.13,1.19-6.71,2.33,1-1.58,2.07-2.36,2.93-3.83,5.92,1.4,8.1-.52,10-4.73-2.17-.42-2.92,0-4.86.34L99,82.37c4.7.65,6.6,1.38,10.48-1.84l1.11-1.11c-1.1-.6-1.39-.33-2.59-.58l-1.13-.32c4.5-.89,11.73.59,14.42-4.78-3-2-9.31-2.45-12.12.36-1.65,1.66-.9,2.33-3.41,2.32L107,74.53a6.43,6.43,0,0,0,.91-2.07c-8.49,1.25-6.76,7.09-11,9.13.54-1.49,1.26-2.4,1.42-4.23-2.27.5-4.64,2.77-5.75,4.1-2,2.37-1.24,4.57-2.65,7.45-.09-.11-.18-.45-.21-.39l.1-6.25C88.11,83,84.64,87.17,84,90c-1.39,6.44,2.4,2.28-2.66,10.66.12-2.68,2-6.87-.24-9.17-7.49,12.41-.45,14.35-3.87,19.5l-1.4-6.51c-2.1,1.54-3,6.09-3.26,8.57a8.73,8.73,0,0,0,.68,4.92c2.42,4.93,2.69-1.31,2.63,9.25-.45-2-2.64-6.86-3.81-7.93-2,3.71-1.3,10.2.79,13C76,136.61,78,132.5,79,142.3c-2.12-3.1-3.34-6.24-6.48-7.8-3,4.72,2.53,12,6.4,14.51,2.37,1.52,3.7.64,4.14,3.8L81.26,152a19.49,19.49,0,0,0-5.33-2.7c.63,7.22,5.22,10.11,11.21,11.3,1.72.35,2.94.5,4.1,2,.62.76.11-.12.52.81-2-.13-5.59-1.43-8.43-1.79,1.31,4.63,7.27,8.93,11.92,9.12,3.42.15,3.56-1.54,6-.2a67.79,67.79,0,0,0,19.1,7.73c1.28-.34,3.38-.81,6.3-1.39Zm4.57,2.68h0c5.88.75,11.73,5.4,13.28,5.08.53-2.18-1.61-3.09-3.23-3.88-1.3-.64-2.88-1.46-4.08-2-1.53.17-3.52.42-6,.77Z"/><path class="cls-10" d="M138.31,74.61c1.26,5.07,5.84,5.92,10.29,5.26,1.26,3.86,2.68,5,7.38,4,2.79,4,.75,4.65,7.32,5.17,0,5.54,1.3,5.75,6.13,6.71-.26,4.79-.18,7.83,4,9-.37,6.34.1,6.94,3.78,10.1-1.76,4.67-.35,5.41,1.12,8.73-2.6,5.07-3.21,2.35-1.36,9.18-3.07,3.7-2.73,3-2.46,8.74-4.56,2.2-4.68,2.7-4.38,9-4.88.92-5.59,3.91-6.24,9-11.7,1.38-9.27,9-10.37,11.05-3.69,3.26-13,5.59-20.93,6.2h0l-2.11.12c-2,.24-5,.81-9,1.7-.72.6-.09.21-1.18.72-.38.18-1.17.44-1.62.6-1.69.61-6.43,1.86-6.77,3.57-.3,1.51,1,1.47,2.08,1,.07,0,1.35-.82,1.7-1a40.91,40.91,0,0,1,12.29-3.91l.36-.05h0a51.57,51.57,0,0,1,8.12-1c7.45-1.22,12.68-2.56,18.11-6,3.18-2,12.66,2.07,12.53-10.65,7.9-.07,10.45-1.57,10.2-9.42,4.74-2.37,4.58-3.31,4.75-9.4,0-1.62,1.85-1.91,2.59-4.38.92-3.07-.72-3.87-1.24-5.88,1.61-1.2,3.14-2,2.89-4.67a19.6,19.6,0,0,0-2.17-5.82c1.29-1.31,2.64-2.83,1.92-6-.6-2.67-2.21-3.5-3.57-4.88,2.63-7,0-5.53-3.4-8.74,1.6-5.81-.81-8.29-6.61-9.22.62-10.51-2.78-6.37-6.18-8.87-1-.89.06.54-.59-.79a6.9,6.9,0,0,1-.41-1.31c-1-3.7-3.5-3.53-7.18-3.58-1.24-2-.87-3.25-3.27-4.06-1.77-.61-5.25.51-6.47-.45-3.39-2.67-4.56-4.33-8.93-.88-.94.74-.49.24-1.19,1.2Zm35.15,27.05h0c-2.75-.71-2.62-4-2.23-7.08,2.71.07,6,1.52,5.93,3.82a4.53,4.53,0,0,1-3.13.45c.08,2,.28,1.49-.57,2.81ZM176,138.2h0a7.89,7.89,0,0,1,4.84-6.29c1.07,1.82,2.59,4.21,2.09,6.72-2,.68-1.86-.34-2.93-1.43l-4,1Zm3.14,2.89h0c1.33,2.94,2.51,7.26-1.57,8.38a27.83,27.83,0,0,0-1.31-2.95C167.08,145.93,175.76,141.87,179.14,141.09ZM165.4,161h0c.06,3.91,0,6.86-3.3,7.57-1.75-1.83.42-1.47-2.3-2.47-5-1.85-1.65-4.69,5.6-5.1Zm10.13-10.21h0c.84,4.07.15,7.54-3.38,8,0-.14-.63-3.34-1-2.76L170,155.7c-.91-.28-.76,0-1.48-.65C166.44,153.05,170.31,150.63,175.53,150.76Zm-35-75.71h0c1.13-1.11,3.89-2.74,5.71-1.31-.82,1.35-.14.33-1.85,1.31l.14,2.9a5.14,5.14,0,0,1-4-2.9Zm26.52,16.63h0c-3.55-.63-2.28-5.48-1.66-5.79.06,0,4.39.19,5,2.88l-2.94.86Zm-6.71-6h0c-2.45-.35-2.95-2.19-2.81-5.1a10.57,10.57,0,0,1,6.1.76c-.86,2.26-1,.89-2.18,1.8s-.17,1-1.11,2.54Zm-11.67-9.13h0c2.51-1.24,5.07-1.28,6.38.71-.71,1.21.25.62-1.95,1,.14,2.34.44,2-.83,3.13-1.79-.27-3.19-2.76-3.6-4.82Zm29.81,51.15h0c-.67-2.54,1.6-4.35,3.27-5.16,1,.74,4.26,4.41,2,6.46-2.07-.13-.45-.14-2.48-1.54a5.14,5.14,0,0,1-1.4.45,1.71,1.71,0,0,1-1.43-.21ZM177,110h0c-1.41-.42-1.78-1-1.9-3a13.62,13.62,0,0,1,.6-4c2.38.51,5.76,2.77,5.66,5.31-2,0-1.42-.21-3-.71C177.58,109,178.09,108.93,177,110Zm4.37,7h0c-.9,1.13-.71,2-1.86,2.12-1.31.16-1.28-.72-1.19-2.06a7.81,7.81,0,0,1,2.26-4.69c1.78.86,4.45,2.62,4,5.62-1.57.33-2-.35-3.18-1Z"/><path class="cls-11" d="M173.46,101.66c.85-1.32.65-.84.57-2.81a4.53,4.53,0,0,0,3.13-.45c.09-2.3-3.22-3.75-5.93-3.82-.39,3.08-.52,6.37,2.23,7.08ZM176,138.2h0l4-1c1.07,1.09.9,2.11,2.93,1.43.5-2.51-1-4.9-2.09-6.72A7.89,7.89,0,0,0,176,138.2Zm3.14,2.89h0c-3.38.78-12.06,4.84-2.88,5.43a27.83,27.83,0,0,1,1.31,2.95C181.65,148.35,180.47,144,179.14,141.09ZM165.4,161h0c-7.25.41-10.6,3.25-5.6,5.1,2.72,1,.55.64,2.3,2.47,3.26-.71,3.36-3.66,3.3-7.57Zm10.13-10.21h0c-5.22-.13-9.09,2.29-7,4.29.72.69.57.37,1.48.65l1.13.32c.37-.58,1,2.62,1,2.76C175.68,158.3,176.37,154.83,175.53,150.76Zm-35-75.71h0a5.14,5.14,0,0,0,4,2.9l-.14-2.9c1.71-1,1,0,1.85-1.31-1.82-1.43-4.58.2-5.71,1.31Zm26.52,16.63h0l.44-2.05,2.94-.86c-.65-2.69-5-2.91-5-2.88C164.78,86.2,163.51,91.05,167.06,91.68Zm-6.71-6h0c.94-1.58.05-1.72,1.11-2.54s1.32.46,2.18-1.8a10.57,10.57,0,0,0-6.1-.76C157.4,83.46,157.9,85.3,160.35,85.65Zm-11.67-9.13h0c.41,2.06,1.81,4.55,3.6,4.82,1.27-1.15,1-.79.83-3.13,2.2-.36,1.24.23,1.95-1-1.31-2-3.87-2-6.38-.71Zm29.81,51.15h0a1.71,1.71,0,0,0,1.43.21,5.14,5.14,0,0,0,1.4-.45c2,1.4.41,1.41,2.48,1.54,2.22-2-1-5.72-2-6.46-1.67.81-3.94,2.62-3.27,5.16ZM177,110h0c1.14-1.06.63-1,1.36-2.45,1.58.5,1,.71,3,.71.1-2.54-3.28-4.8-5.66-5.31a13.62,13.62,0,0,0-.6,4C175.17,109,175.54,109.57,177,110Zm4.37,7h0c1.18.64,1.61,1.32,3.18,1,.48-3-2.19-4.76-4-5.62a7.81,7.81,0,0,0-2.26,4.69c-.09,1.34-.12,2.22,1.19,2.06,1.15-.15,1-1,1.86-2.12Z"/><polygon class="cls-8" points="187.68 159.44 189.64 165.35 196.04 165.34 190.86 168.98 192.85 174.88 187.68 171.22 182.51 174.88 184.5 168.98 179.32 165.34 185.72 165.35 187.68 159.44"/><polygon class="cls-8" points="68.86 158.98 70.82 164.89 77.22 164.88 72.03 168.52 74.02 174.43 68.86 170.77 63.69 174.43 65.68 168.52 60.5 164.88 66.89 164.89 68.86 158.98"/><path class="cls-12" d="M55.07,144.48l-.87-3.11,5.29-1.49a4.14,4.14,0,0,1,1.56-.14,3.34,3.34,0,0,1,1.47.52,3.71,3.71,0,0,1,1.08,1,7.25,7.25,0,0,1,.91,2.09,15.1,15.1,0,0,1,.36,1.62,4.6,4.6,0,0,1,0,1.55,3.66,3.66,0,0,1-.46,1.28,2.94,2.94,0,0,1-.83,1,5.22,5.22,0,0,1-1.42.71L56.92,151,56,147.9l5.42-1.53a1.54,1.54,0,0,0,1-.77,2.24,2.24,0,0,0-.71-2.52,1.47,1.47,0,0,0-1.26-.13l-5.42,1.53Zm-1.44-7.09-.23-3,4.78-4.29-5.08.39-.23-3,9.19-.71.24,3-4.75,4.27,5.05-.39.23,3Zm-.57-13.64.24-3.22,9.2.7-.25,3.23Zm.29-5.49.6-3.32,7-1.12-6.11-3.48.59-3.22,8.37,5.48L63.13,116l-9.78,2.22Zm2.89-13.91,3.19-8,1.83.73-2,5,1.37.55L62.48,98l1.74.69-1.84,4.65,1.68.67,2.06-5.16,1.94.77-3.25,8.17-8.57-3.41Zm12.48-6.43-8-4.64,2.71-4.65a9,9,0,0,1,1.34-1.86,2.48,2.48,0,0,1,1.37-.68,2.35,2.35,0,0,1,1.54.34,2.4,2.4,0,0,1,1,1,2.78,2.78,0,0,1,.27,1.33,4.56,4.56,0,0,1-.26,1.17,3.37,3.37,0,0,1,.72-.56,3.28,3.28,0,0,1,.67-.2,3.79,3.79,0,0,1,.73-.1h3.09L72.05,92.2l-3.29.07a2.31,2.31,0,0,0-.91.15,1.41,1.41,0,0,0-.58.58l-.15.24,3.23,1.88-1.63,2.8Zm-3.1-5.55.69-1.18a6.61,6.61,0,0,0,.32-.8.89.89,0,0,0,0-.6.81.81,0,0,0-.36-.45.83.83,0,0,0-.76-.07,2.23,2.23,0,0,0-.81.92L64,91.42l1.63,1Zm6.27-5.56,1.77-2.5a1.92,1.92,0,0,0,1,.31A1.81,1.81,0,0,0,76,83.85a1.67,1.67,0,0,0,.44-1,.78.78,0,0,0-1-.83A4.59,4.59,0,0,0,74,83a7.51,7.51,0,0,1-2.76,1.67,2.16,2.16,0,0,1-2-.4,2.21,2.21,0,0,1-.76-1.2,3.09,3.09,0,0,1,.1-1.71A7.29,7.29,0,0,1,70,79.09a5.74,5.74,0,0,1,2.41-2,2.77,2.77,0,0,1,2.42.32L73,79.92a1.37,1.37,0,0,0-1-.17,1.72,1.72,0,0,0-.89.66,1.44,1.44,0,0,0-.36.79.6.6,0,0,0,.22.54.53.53,0,0,0,.45.07,2.8,2.8,0,0,0,.94-.63,14.52,14.52,0,0,1,2.52-1.86,3.14,3.14,0,0,1,1.63-.41,2.36,2.36,0,0,1,1.33.53,2.7,2.7,0,0,1,.93,1.45,3.42,3.42,0,0,1-.07,1.92A7.2,7.2,0,0,1,77.41,85a5.62,5.62,0,0,1-3,2.32,3.38,3.38,0,0,1-2.52-.53Zm3.34-13.32,2.35-2.22L83.92,78,81.56,80.2l-6.33-6.71Zm4.15-3.92,7.76-6,1.4,1.8-2.61,2,4.26,5.48-2.55,2-4.25-5.49-2.61,2Zm18.89-3.22L95,68l.22,1.59-2.94,1.49-.66-10,3.15-1.59,7.66,6.46-3,1.53Zm-1.51-1.48-2.51-2.44.47,3.47Zm5.13-2,2.85-1.14a1.88,1.88,0,0,0,.7.82,1.83,1.83,0,0,0,1.53.07,1.72,1.72,0,0,0,.91-.61.82.82,0,0,0,.15-.75.83.83,0,0,0-.54-.49,4.27,4.27,0,0,0-1.74,0,7.42,7.42,0,0,1-3.22-.09,2.16,2.16,0,0,1-1.43-1.39,2.23,2.23,0,0,1,0-1.42,3,3,0,0,1,1-1.39,7.35,7.35,0,0,1,2.31-1.17,5.77,5.77,0,0,1,3.1-.35,2.76,2.76,0,0,1,1.86,1.58l-2.82,1.12a1.41,1.41,0,0,0-.78-.7,1.72,1.72,0,0,0-1.1.08,1.4,1.4,0,0,0-.74.47.6.6,0,0,0-.1.57.47.47,0,0,0,.34.3,2.8,2.8,0,0,0,1.13,0,15,15,0,0,1,3.13-.2,3.26,3.26,0,0,1,1.59.54,2.43,2.43,0,0,1,.83,1.16,2.7,2.7,0,0,1,0,1.73,3.35,3.35,0,0,1-1.11,1.57,6.94,6.94,0,0,1-2.25,1.18,5.65,5.65,0,0,1-3.78.32,3.36,3.36,0,0,1-1.84-1.81Zm15.59-10.68,4.25-.32,2,5.47,1.2-5.72,4.22-.32.7,9.2-2.63.2-.54-7-1.5,7.16-2.38.18-2.56-6.85.53,7-2.63.2-.7-9.2Zm22.36.17,3.2.4-.67,5.45a4.26,4.26,0,0,1-.48,1.5,3.38,3.38,0,0,1-1,1.15,3.63,3.63,0,0,1-1.38.6,7.38,7.38,0,0,1-2.27,0,14.4,14.4,0,0,1-1.64-.3,4.67,4.67,0,0,1-1.45-.55,3.66,3.66,0,0,1-1-.93,2.91,2.91,0,0,1-.56-1.13,5,5,0,0,1-.1-1.59l.67-5.45,3.2.39-.69,5.58a1.54,1.54,0,0,0,.32,1.23,1.91,1.91,0,0,0,1.25.58,2,2,0,0,0,1.35-.25,1.51,1.51,0,0,0,.61-1.12l.69-5.59Zm7.14,1.2,3.06,1-1,3.06,3.35,1.12,1-3.06,3.07,1-2.92,8.75-3.07-1,1.18-3.54-3.35-1.12-1.18,3.54-3.06-1L147,53.53Zm14.94,14.33-3.27-1.65-1.15,1.12-2.94-1.49,7.67-6.46,3.15,1.6-.67,10-3-1.52.22-1.59Zm.29-2.09.48-3.48-2.52,2.44Zm9-1.37L174.56,67l-2.21,5.41,4.76-3.4,3.32,2.62-5.71,7.24-2.08-1.63L177,71.76,171.05,76l-1.88-1.49,2.76-6.78-4.36,5.52-2.07-1.63,5.72-7.24Zm12.34,10.2L186.18,78l-3.42,4.73,5.42-2.17,2.61,3.33-7.26,5.69-1.63-2.08,5.54-4.34-6.79,2.73L179.17,84,183.46,78l-5.54,4.33-1.63-2.08,7.27-5.68Zm5.6,21.47-1.84-3.16-1.58.31-1.65-2.85L194,89.13l1.77,3.05-6,8-1.7-2.92Zm1.38-1.6,2.29-2.65-3.44.68Zm8.13,3.84,1.57,4.53a6.26,6.26,0,0,1,.43,2.28,3.74,3.74,0,0,1-.44,1.68,3.78,3.78,0,0,1-1.13,1.26,5.78,5.78,0,0,1-1.6.83,5.5,5.5,0,0,1-2.29.4,3.85,3.85,0,0,1-1.64-.55,3.55,3.55,0,0,1-1.17-1.14,8.49,8.49,0,0,1-.87-1.73L190,101.34l8.72-3Zm-.92,3.73L193,103.7l.26.74a3.63,3.63,0,0,0,.66,1.3,1.43,1.43,0,0,0,.87.41,3.64,3.64,0,0,0,1.59-.3,2.81,2.81,0,0,0,1.72-1.17,2.53,2.53,0,0,0-.08-1.88Zm4.7,8.54.58,3.19L194,115.43l-.58-3.19,9.07-1.66Zm1.1,5.36.27,3.57-2.93,2.35,3.26,1.86.27,3.55-5.66-3.63-3.85.29-.25-3.22,3.85-.3,5-4.47Zm-7.46,18.23.28-3.64-1.48-.64.26-3.28,8.89,4.62-.27,3.52-9.49,3.2.26-3.37Zm2-.52,3.39-.89-3.22-1.39-.17,2.28Zm4.82,7.86-.88,3.1-3.09-.88-1,3.4,3.1.87-.89,3.12-8.87-2.51.88-3.11,3.59,1,1-3.39-3.59-1,.88-3.1Z"/><path class="cls-12" d="M84.85,177.29l2.22,1.78-2.18,2.72,4.51-.85,3,2.37-4.8.6-.85,6.69L84,188.41l.85-4.17-2.11.28-1.41,1.75-2.22-1.78Zm16,10.22,2.55,1.27L101,193.7A4.52,4.52,0,0,1,100,195a3.44,3.44,0,0,1-1.29.79,3.31,3.31,0,0,1-1.36.17,5.85,5.85,0,0,1-1.92-.62,11.75,11.75,0,0,1-1.27-.74,3.78,3.78,0,0,1-1-.93,3.3,3.3,0,0,1-.51-1.14,2.75,2.75,0,0,1-.07-1.23,5.18,5.18,0,0,1,.46-1.51l2.45-4.91,2.55,1.27-2.51,5a1.45,1.45,0,0,0,.69,2.14,1.58,1.58,0,0,0,1.22.14,1.64,1.64,0,0,0,.9-.88l2.51-5Zm6.61,2.69,2.58.67,2.06,5.8,1.29-4.93,2.6.68-2.32,8.93-2.61-.68-2-5.77-1.28,4.9-2.59-.68,2.32-8.92ZM120.63,193l2.85.22-.7,9.2-2.85-.22.7-9.2Zm7.81.62,2.65-.2,3.84,4.82-.39-5.08,2.69-.21.7,9.2-2.69.21-3.81-4.8.38,5.06-2.67.2-.7-9.2Zm19.18,3.22-.53-1.84,4.23-1.22,1.09,3.77a9.06,9.06,0,0,1-1.82,1.75,7.8,7.8,0,0,1-2.13.94,5.63,5.63,0,0,1-2.73.2,3.79,3.79,0,0,1-2-1.16,5.9,5.9,0,0,1-1.38-5,4,4,0,0,1,1.28-2.13,5.94,5.94,0,0,1,2.3-1.13,7,7,0,0,1,2.27-.36,2.9,2.9,0,0,1,1.45.47,3.89,3.89,0,0,1,1.13,1.21l-2.5,1.24a1.49,1.49,0,0,0-.77-.62,2,2,0,0,0-2.33,1.06,3.11,3.11,0,0,0,0,2.13,3.2,3.2,0,0,0,1.13,1.9,1.94,1.94,0,0,0,1.68.18,2.78,2.78,0,0,0,.84-.38,5.47,5.47,0,0,0,.82-.72l-.24-.83-1.83.52Zm15.19-4-2.89,1.45.26,1.56-2.6,1.3-1-9.8,2.79-1.39,7.21,6.7-2.67,1.34Zm-1.43-1.51L159,188.86l.58,3.42,1.81-.9Zm4.06-8.7,2.11-1.62L173.4,183l-3.1-4,2.14-1.64,5.61,7.32-2.14,1.64-5.81-1.93,3.08,4L171.05,190l-5.61-7.32Z"/></svg>